<svg xmlns="http://www.w3.org/2000/svg" width="15.059" height="15.535" viewBox="0 0 15.059 15.535">
  <g id="Group_34976" data-name="Group 34976" transform="translate(0 0)">
    <path id="Path_207" data-name="Path 207" d="M20.9,22.019v-.431a2.588,2.588,0,1,0-5.175,0v.431c0,1.294-.863,3.45-1.725,3.45v1.725h2.588a1.725,1.725,0,1,0,3.45,0h2.588V25.469C21.763,25.469,20.9,23.744,20.9,22.019Z" transform="translate(-10.781 -13.385)" fill="#13294b"/>
    <path id="Path_208" data-name="Path 208" d="M-2342.581-268.745a.635.635,0,0,1-.6-.474,6.583,6.583,0,0,0-5.133-4.485.609.609,0,0,1-.42-.253.608.608,0,0,1-.1-.48.608.608,0,0,1,.252-.421.609.609,0,0,1,.48-.1,7.9,7.9,0,0,1,6.125,5.391.683.683,0,0,1-.432.819Zm-3.494-.345a4.02,4.02,0,0,0-2.372-1.9.627.627,0,0,1-.4-.315.628.628,0,0,1-.036-.5.631.631,0,0,1,.315-.4.63.63,0,0,1,.5-.036,5.361,5.361,0,0,1,3.149,2.5.643.643,0,0,1-.259.863.571.571,0,0,1-.345.129.672.672,0,0,1-.561-.345Zm-7.719.259a.642.642,0,0,1-.259-.863,5.088,5.088,0,0,1,3.148-2.5.683.683,0,0,1,.819.431.683.683,0,0,1-.431.819,4.152,4.152,0,0,0-2.372,1.9.756.756,0,0,1-.6.3.792.792,0,0,1-.3-.086Zm-2.76.043a.664.664,0,0,1-.432-.819,7.851,7.851,0,0,1,6.081-5.391.637.637,0,0,1,.733.518.638.638,0,0,1-.517.733,6.505,6.505,0,0,0-5.089,4.528.635.635,0,0,1-.6.474.258.258,0,0,1-.172-.043Z" transform="translate(2357.014 275.007)" fill="#418fde"/>
  </g>
</svg>
