<svg xmlns="http://www.w3.org/2000/svg" width="53.063" height="50.027" viewBox="0 0 53.063 50.027">
  <g id="breaking_system" transform="translate(0)">
    <ellipse id="Ellipse_668" data-name="Ellipse 668" cx="7.109" cy="7.109" rx="7.109" ry="7.109" transform="translate(17.989 17.9)" fill="#00225a"/>
    <path id="Path_23922" data-name="Path 23922" d="M39.925,37.385c-1.95-.8-1.374-2.215-.51-3.745A14.691,14.691,0,0,0,41.488,26.4a14.7,14.7,0,0,0-2.073-7.241c-.864-1.53-1.444-2.94.51-3.741.8-.331,4.109-1.735,6.251-2.649l.215-.089a25.011,25.011,0,1,0,0,27.458l-.215-.089C44.034,39.12,40.726,37.716,39.925,37.385Zm-33.464-17a1.46,1.46,0,1,1,.116-2.059A1.46,1.46,0,0,1,6.461,20.383ZM31.707,5.225a1.46,1.46,0,1,1-.487,1.007,1.46,1.46,0,0,1,.487-1.007ZM19.983,11.016a1.46,1.46,0,1,1-.119,2.063A1.46,1.46,0,0,1,19.983,11.016Zm-9.6.728a.87.87,0,1,1,0-.013Zm-.086,18.211a1.016,1.016,0,1,1,0-.026Zm2.675,11.79a3.428,3.428,0,1,0-.007-.026Zm6.463,5.831a1.46,1.46,0,1,1,.116-2.063,1.46,1.46,0,0,1-.116,2.063Zm11.724-5.768a1.46,1.46,0,1,1,.119-2.063,1.46,1.46,0,0,1-.119,2.063Zm-5.589-3.285A12.118,12.118,0,1,1,37.687,26.406,12.118,12.118,0,0,1,25.569,38.524ZM38.177,11.092A1.46,1.46,0,1,1,37.69,12.1a1.46,1.46,0,0,1,.487-1.007Zm2.589,29.984a2.6,2.6,0,1,1,0-.007Z" transform="translate(-0.474 -1.394)" fill="#00225a"/>
    <path id="Path_23923" data-name="Path 23923" d="M34.532,9.809c-.771-1.42-1.692-1.152-2.785-.679-2.142.93-5.443,2.347-6.251,2.649-1.222.473-.682,1.9-.278,2.553a13.681,13.681,0,0,1,0,14.479c-.4.662-.944,2.083.278,2.556.808.311,4.109,1.735,6.251,2.649,1.093.473,2.016.745,2.785-.679a24.227,24.227,0,0,0,0-23.545ZM28.506,28.93l-.907-.48a16.453,16.453,0,0,0,1.612-6.87A16.337,16.337,0,0,0,27.6,14.712l.9-.483a16.472,16.472,0,0,1,0,14.7Zm5.433,1.513-.907-.48A20,20,0,0,0,35,21.579a19.935,19.935,0,0,0-1.967-8.38l.907-.483a19.866,19.866,0,0,1,0,17.72Z" transform="translate(15.478 3.426)" fill="#00225a"/>
  </g>
</svg>
