<svg xmlns="http://www.w3.org/2000/svg" width="15.478" height="13.734" viewBox="0 0 15.478 13.734">
  <g id="Group_35685" data-name="Group 35685" transform="translate(-3.887 -4.582)">
    <path id="Path_282" data-name="Path 282" d="M21.722,9.959h-.967A1.421,1.421,0,0,0,19.3,8.8a1.458,1.458,0,0,0-1.451,1.16h-.967A1.421,1.421,0,0,0,15.436,8.8a1.458,1.458,0,0,0-1.451,1.16h-.967A1.427,1.427,0,0,0,11.563,8.8a1.451,1.451,0,0,0-1.445,1.16H9.15A1.425,1.425,0,0,0,7.7,11.41v9.671A1.424,1.424,0,0,0,9.15,22.531H21.7a1.424,1.424,0,0,0,1.451-1.451l.021-9.671a1.371,1.371,0,0,0-1.451-1.451Zm-2.9.29a.484.484,0,0,1,.967,0v.967a.484.484,0,0,1-.967,0Zm-3.868,0a.484.484,0,1,1,.967,0v.967a.484.484,0,1,1-.967,0Zm-3.868,0a.484.484,0,1,1,.967,0v.967a.484.484,0,0,1-.967,0ZM21.241,20.6H9.652l-.018-8.22H21.241Z" transform="translate(-3.813 -4.216)" fill="#418fde"/>
    <path id="Path_283" data-name="Path 283" d="M2244.051,811.273h6.383a.347.347,0,0,0,.311-.524l-3.209-5.591a.326.326,0,0,0-.587,0l-3.209,5.591a.372.372,0,0,0,.312.524Zm3.595-.778h-.787v-.787h.787Zm0-1.574h-.787v-1.968h.787Z" transform="translate(-2235.627 -795.858)" fill="#13294b"/>
  </g>
</svg>
