<svg xmlns="http://www.w3.org/2000/svg" width="11.724" height="14.096" viewBox="0 0 11.724 14.096">
  <g id="Group_35686" data-name="Group 35686" transform="translate(-4.321 -3.074)">
    <path id="Path_358" data-name="Path 358" d="M1124.233,673.748a.758.758,0,0,0-1.063.015c-2.554,2.471-.859.833-3.434,3.312a.57.57,0,0,1-.429.18l-1.926-.22a.354.354,0,1,1,.037-.706l1.814.181a.743.743,0,1,0,.074-1.484l-4.353-.3a.757.757,0,0,0-.532.183l-1.508,1.534a.614.614,0,0,0-.02.842c.467.522,1.25,1.395,1.717,1.912a.632.632,0,0,0,.842.084l.732-.541,3.623.2a.757.757,0,0,0,.581-.224l3.861-3.918a.737.737,0,0,0-.016-1.05Z" transform="translate(-1108.416 -662.231)" fill="#418fde"/>
    <g id="noun-dimond-3623855" transform="translate(5.412 3.074)">
      <path id="Path_106073" data-name="Path 106073" d="M409.251,80.852l-1.321,2.629h2.632Z" transform="translate(-404.516 -80.48)" fill="#13294b"/>
      <path id="Path_106074" data-name="Path 106074" d="M356.911,72.631,358.231,70H355.6Z" transform="translate(-353.889 -70.002)" fill="#13294b"/>
      <path id="Path_106075" data-name="Path 106075" d="M404.95,175l1.417,5.667L407.784,175Z" transform="translate(-401.638 -171.753)" fill="#13294b"/>
      <path id="Path_106076" data-name="Path 106076" d="M463.231,70H460.6l1.309,2.629Z" transform="translate(-455.476 -70)" fill="#13294b"/>
      <path id="Path_106077" data-name="Path 106077" d="M305.554,83.481l-1.312-2.629-1.321,2.629Z" transform="translate(-302.922 -80.48)" fill="#13294b"/>
      <path id="Path_106078" data-name="Path 106078" d="M466.531,175l-1.387,5.547L469.3,175Z" transform="translate(-459.956 -171.753)" fill="#13294b"/>
      <path id="Path_106079" data-name="Path 106079" d="M514.251,80.852l-1.321,2.629h2.632Z" transform="translate(-506.102 -80.48)" fill="#13294b"/>
      <path id="Path_106080" data-name="Path 106080" d="M309.021,175h-2.767l4.148,5.523Z" transform="translate(-306.14 -171.753)" fill="#13294b"/>
    </g>
  </g>
</svg>
