<svg id="Group_34877" data-name="Group 34877" xmlns="http://www.w3.org/2000/svg" width="11.873" height="15.786" viewBox="0 0 11.873 15.786">
  <path id="Path_322" data-name="Path 322" d="M9.895,0H1.979A1.985,1.985,0,0,0,0,1.979v8.905a1.985,1.985,0,0,0,1.979,1.979h.445a6.58,6.58,0,0,1,.841-1.979H1.979V8.658L3.364,7.272,4.749,8.608,7.124,6.036l.841.742.643-3.166-3.166.841.742.693L4.7,6.778,3.315,5.442,1.979,6.827V1.979H9.895v8.905H8.608a6.582,6.582,0,0,1,.841,1.979h.445a1.985,1.985,0,0,0,1.979-1.979V1.979A1.985,1.985,0,0,0,9.895,0Z" fill="#418fde"/>
  <path id="Path_323" data-name="Path 323" d="M9.274,17.7C8.086,19.25,6.8,21.236,6.8,22.108a2.474,2.474,0,0,0,4.947,0C11.747,21.236,10.461,19.25,9.274,17.7Z" transform="translate(-3.337 -8.795)" fill="#13294b"/>
</svg>
