<svg xmlns="http://www.w3.org/2000/svg" width="26.999" height="27.002" viewBox="0 0 26.999 27.002">
  <g id="Group_35685" data-name="Group 35685" transform="translate(-985 -201)">
    <path id="equipment-detail" d="M-2339.367-3664.538l-2.585-2.489a10.891,10.891,0,0,1-6.134,1.877A10.928,10.928,0,0,1-2359-3676.078,10.927,10.927,0,0,1-2348.086-3687a10.932,10.932,0,0,1,10.939,10.925,10.866,10.866,0,0,1-1.956,6.241l2.567,2.471a1.857,1.857,0,0,1,.541,1.369,2.039,2.039,0,0,1-.6,1.4,2.027,2.027,0,0,1-1.441.6A1.854,1.854,0,0,1-2339.367-3664.538Zm-17.448-11.54a8.742,8.742,0,0,0,8.742,8.742,8.741,8.741,0,0,0,8.74-8.742,8.74,8.74,0,0,0-8.741-8.742,8.742,8.742,0,0,0-8.742,8.746Z" transform="translate(3344 3892.003)" fill="#418fde"/>
    <path id="Path_106094" data-name="Path 106094" d="M6.282,66.574l1.269,1.094-5.384,6.39A.838.838,0,1,1,.9,72.964Z" transform="translate(988.264 145.032)" fill="#418fde" fill-rule="evenodd"/>
    <path id="Path_106095" data-name="Path 106095" d="M199.929,303.155l1.094,1.357,2.845-3.151,4.071,4.508H197.828Z" transform="translate(794.926 -85.028)" fill="#418fde" fill-rule="evenodd"/>
    <g id="Group_34891" data-name="Group 34891" transform="translate(-41.454 -5.273)">
      <path id="Path_106086" data-name="Path 106086" d="M16.98,17.4l1.155,2.5,2.625.4-1.89,1.908.455,2.754L16.98,23.675,14.635,24.96l.455-2.752L13.2,20.3l2.59-.4Z" transform="translate(1030.975 192.313)" fill="#13294b"/>
      <path id="Path_106087" data-name="Path 106087" d="M-2346.473-270.434a.464.464,0,0,1-.441-.346,4.807,4.807,0,0,0-3.749-3.276.445.445,0,0,1-.307-.185.446.446,0,0,1-.071-.351.445.445,0,0,1,.184-.307.445.445,0,0,1,.351-.071,5.768,5.768,0,0,1,4.473,3.937.5.5,0,0,1-.315.6Zm-2.551-.252a2.939,2.939,0,0,0-1.732-1.386.461.461,0,0,1-.29-.23.46.46,0,0,1-.026-.368.46.46,0,0,1,.23-.289.461.461,0,0,1,.368-.026,3.912,3.912,0,0,1,2.3,1.827.469.469,0,0,1-.189.63.415.415,0,0,1-.252.095.491.491,0,0,1-.409-.252Zm-5.639.189a.469.469,0,0,1-.189-.63,3.717,3.717,0,0,1,2.3-1.827.5.5,0,0,1,.6.315.5.5,0,0,1-.314.6,3.032,3.032,0,0,0-1.733,1.386.55.55,0,0,1-.441.22A.582.582,0,0,1-2354.663-270.5Zm-2.016.031a.485.485,0,0,1-.315-.6,5.735,5.735,0,0,1,4.442-3.937.466.466,0,0,1,.535.378.466.466,0,0,1-.378.535,4.751,4.751,0,0,0-3.717,3.307.464.464,0,0,1-.441.346A.189.189,0,0,1-2356.678-270.465Z" transform="translate(3399.468 481.28)" fill="#418fde"/>
    </g>
  </g>
</svg>
