<svg xmlns="http://www.w3.org/2000/svg" width="24.167" height="19.338" viewBox="0 0 24.167 19.338">
  <path id="contact-us" d="M-2420.827-3587.764l-5.361-3.524h-10.4A2.6,2.6,0,0,1-2439-3593.7v-10.875a2.6,2.6,0,0,1,2.417-2.416h19.333a2.6,2.6,0,0,1,2.417,2.417v10.875a2.6,2.6,0,0,1-2.417,2.417h-2.894v3.224a.405.405,0,0,1-.122.29.407.407,0,0,1-.292.116A.371.371,0,0,1-2420.827-3587.764Zm-15.757-5.945h19.333v-10.875h-19.333Zm13.292-5.437a1.813,1.813,0,0,1,1.813-1.812,1.813,1.813,0,0,1,1.813,1.813,1.813,1.813,0,0,1-1.812,1.813A1.813,1.813,0,0,1-2423.292-3599.147Zm-5.437,0a1.813,1.813,0,0,1,1.813-1.812,1.813,1.813,0,0,1,1.813,1.813,1.813,1.813,0,0,1-1.812,1.813A1.813,1.813,0,0,1-2428.729-3599.147Zm-5.437,0a1.813,1.813,0,0,1,1.813-1.812,1.813,1.813,0,0,1,1.813,1.813,1.813,1.813,0,0,1-1.812,1.813A1.813,1.813,0,0,1-2434.167-3599.147Z" transform="translate(2439 3606.996)" fill="#418fde"/>
</svg>
