<svg id="Group_14788" data-name="Group 14788" xmlns="http://www.w3.org/2000/svg" width="50.497" height="50.497" viewBox="0 0 50.497 50.497">
  <ellipse id="Ellipse_662" data-name="Ellipse 662" cx="3.82" cy="3.82" rx="3.82" ry="3.82" transform="translate(21.545 21.773)" fill="#00225a"/>
  <path id="Path_23902" data-name="Path 23902" d="M53.678,28.553A15.4,15.4,0,0,0,51.834,23.5a13.236,13.236,0,0,0-9.2-.177,11.942,11.942,0,0,0-5.364,3.99,7.693,7.693,0,0,0-.782-.431,11.086,11.086,0,0,1,3.237-6.246c3.315-3.167,5.686-2.475,5.973-3.337.142-.431-.068-1.342-4-3.083a15.376,15.376,0,0,0-5.149-1.554A13.239,13.239,0,0,0,30.9,19.919a11.961,11.961,0,0,0-.045,6.613,8.007,8.007,0,0,0-.965.367,11.115,11.115,0,0,1-3.08-6.713c-.4-4.566,1.628-5.986,1.133-6.758-.248-.38-1.088-.788-4.9,1.187a15.366,15.366,0,0,0-4.434,3.047,13.239,13.239,0,0,0,2.127,8.959,11.932,11.932,0,0,0,5.319,4.248,7.756,7.756,0,0,0-.322.888,11.112,11.112,0,0,1-7.125-1.635c-3.862-2.465-3.755-4.936-4.66-5.007-.454-.035-1.287.383-2.047,4.615a15.373,15.373,0,0,0-.283,5.371,13.236,13.236,0,0,0,8.393,3.765,11.907,11.907,0,0,0,6.243-1.432,7.744,7.744,0,0,0,.544.927,11.06,11.06,0,0,1-5.538,4.071c-4.364,1.406-6.2-.251-6.829.4-.322.322-.525,1.236,2.253,4.505a15.36,15.36,0,0,0,3.958,3.643,13.236,13.236,0,0,0,8.248-4.068,12.052,12.052,0,0,0,2.8-5.348,7.855,7.855,0,0,0,1.442.151A11.028,11.028,0,0,1,32.59,48.2c-1.738,4.241-4.183,4.573-4.1,5.471.045.451.6,1.2,4.9,1.191a15.36,15.36,0,0,0,5.335-.679,13.239,13.239,0,0,0,2.208-8.927,12,12,0,0,0-2.372-5.709,7.8,7.8,0,0,0,.965-1.107,11.051,11.051,0,0,1,4.38,4.975c1.831,4.2.364,6.191,1.075,6.758.354.283,1.287.4,4.27-2.69a15.388,15.388,0,0,0,3.218-4.3,13.236,13.236,0,0,0-4.866-7.8,11.907,11.907,0,0,0-6.665-2.32,8,8,0,0,0-.238-1.242,11.047,11.047,0,0,1,6.645-1c4.505.756,5.39,3.07,6.253,2.78C54.032,33.447,54.637,32.736,53.678,28.553ZM33.214,39.4a5.466,5.466,0,1,0,0-.01Z" transform="translate(-7.853 -8.347)" fill="#00225a"/>
  <path id="Path_23903" data-name="Path 23903" d="M30.249,5A25.249,25.249,0,1,0,55.5,30.249,25.249,25.249,0,0,0,30.249,5Zm0,48.4A23.144,23.144,0,1,1,53.393,30.252,23.144,23.144,0,0,1,30.249,53.4Z" transform="translate(-5 -5)" fill="#00225a"/>
</svg>
