<svg xmlns="http://www.w3.org/2000/svg" width="20.591" height="23.468" viewBox="0 0 20.591 23.468">
  <path id="image_13_Traced_" data-name="image 13 (Traced)" d="M9.849.114a.962.962,0,0,0-.521.568,55.188,55.188,0,0,0-.139,6.093v5.694L6.95,10.394C5.719,9.252,4.589,8.253,4.439,8.173,3.752,7.805,2.98,8.485,3.044,9.4a89.514,89.514,0,0,0,6.975,6.615c.607.231.377.41,4.772-3.728,1.934-1.821,2.743-2.662,2.8-2.909a1.069,1.069,0,0,0-1.3-1.24,27.69,27.69,0,0,0-2.5,2.151c-1.213,1.119-2.248,2.035-2.3,2.035S11.4,9.707,11.4,6.507L11.342.674,11.12.381A1.02,1.02,0,0,0,9.849.114ZM19.154,14.8c-.622.169-.693.433-.765,2.861-.073,2.462-.142,2.7-.957,3.255l-.439.3H3.591l-.464-.354c-.8-.61-.922-1.061-.925-3.422,0-2.021-.008-2.065-.3-2.36a1.2,1.2,0,0,0-1.531-.063c-.348.348-.411.9-.343,2.986.067,2.038.219,2.682.856,3.617A4.877,4.877,0,0,0,2.936,23.2c.495.193,1.208.219,6.928.257,4.491.03,6.592,0,7.108-.1a4.281,4.281,0,0,0,3.5-3.419,19.379,19.379,0,0,0-.03-4.662A1.136,1.136,0,0,0,19.154,14.8Z" transform="translate(0 0)" fill="#333f48" fill-rule="evenodd"/>
</svg>
