<svg xmlns="http://www.w3.org/2000/svg" width="19.858" height="19.854" viewBox="0 0 19.858 19.854">
  <g id="Group_35685" data-name="Group 35685" transform="translate(-6.97 -6.969)">
    <path id="equipment-detail" d="M-2342.054-3667.613l-2.231-2.148a9.4,9.4,0,0,1-5.294,1.62,9.432,9.432,0,0,1-9.421-9.431,9.431,9.431,0,0,1,9.421-9.43,9.436,9.436,0,0,1,9.442,9.429,9.379,9.379,0,0,1-1.688,5.387l2.216,2.133a1.6,1.6,0,0,1,.467,1.181,1.759,1.759,0,0,1-.521,1.206,1.75,1.75,0,0,1-1.244.517A1.6,1.6,0,0,1-2342.054-3667.613Zm-15.06-9.96a7.545,7.545,0,0,0,7.546,7.545,7.544,7.544,0,0,0,7.544-7.545,7.544,7.544,0,0,0-7.545-7.545,7.545,7.545,0,0,0-7.546,7.549Z" transform="translate(2365.971 3693.972)" fill="#418fde"/>
    <g id="noun-mining-1504745" transform="translate(10.1 -45.358)">
      <path id="Path_106093" data-name="Path 106093" d="M159.328,57.879c1.4.34,2.607,2,2.833,4.156a6.673,6.673,0,0,1-.151,2.153,4.5,4.5,0,0,0-.264-1.813,4.784,4.784,0,0,0-3.06-3.136Z" transform="translate(-155.699 0)" fill="#418fde" fill-rule="evenodd"/>
      <path id="Path_106094" data-name="Path 106094" d="M5.518,66.574l1.1.944L1.966,73.034a.723.723,0,0,1-1.1-.944Z" transform="translate(-0.406 -8.544)" fill="#418fde" fill-rule="evenodd"/>
      <path id="Path_106095" data-name="Path 106095" d="M199.641,302.91l.944,1.171,2.456-2.72,3.514,3.891h-8.727Z" transform="translate(-194.264 -239.251)" fill="#418fde" fill-rule="evenodd"/>
    </g>
  </g>
</svg>
