<svg xmlns="http://www.w3.org/2000/svg" width="19.823" height="20.45" viewBox="0 0 19.823 20.45">
  <g id="Group_35685" data-name="Group 35685" transform="translate(-4.008 -3.709)">
    <path id="Path_207" data-name="Path 207" d="M23.083,22.974v-.568a3.406,3.406,0,0,0-6.813,0v.568c0,1.7-1.135,4.542-2.271,4.542v2.271h3.406a2.271,2.271,0,1,0,4.542,0h3.406V27.516C24.219,27.516,23.083,25.245,23.083,22.974Z" transform="translate(-5.756 -7.898)" fill="#13294b"/>
    <path id="Path_208" data-name="Path 208" d="M-2338.016-266.764a.835.835,0,0,1-.794-.624,8.666,8.666,0,0,0-6.756-5.9.8.8,0,0,1-.553-.333.8.8,0,0,1-.128-.632.8.8,0,0,1,.332-.554.8.8,0,0,1,.633-.128,10.4,10.4,0,0,1,8.062,7.1.9.9,0,0,1-.569,1.079Zm-4.6-.454a5.3,5.3,0,0,0-3.123-2.5.826.826,0,0,1-.521-.415.828.828,0,0,1-.048-.664.829.829,0,0,1,.415-.52.83.83,0,0,1,.664-.048,7.054,7.054,0,0,1,4.144,3.293.846.846,0,0,1-.341,1.135.752.752,0,0,1-.454.17.885.885,0,0,1-.738-.454Zm-10.162.341a.845.845,0,0,1-.341-1.135,6.7,6.7,0,0,1,4.144-3.293.9.9,0,0,1,1.079.568.9.9,0,0,1-.567,1.079,5.464,5.464,0,0,0-3.123,2.5.994.994,0,0,1-.795.4,1.044,1.044,0,0,1-.4-.114Zm-3.634.057a.874.874,0,0,1-.568-1.079,10.335,10.335,0,0,1,8.005-7.1.84.84,0,0,1,.965.681.84.84,0,0,1-.681.965,8.564,8.564,0,0,0-6.7,5.961.835.835,0,0,1-.794.624.339.339,0,0,1-.227-.057Z" transform="translate(2361.021 278.717)" fill="#418fde"/>
  </g>
</svg>
