<svg xmlns="http://www.w3.org/2000/svg" width="13.067" height="11.595" viewBox="0 0 13.067 11.595">
  <g id="Group_35687" data-name="Group 35687" transform="translate(-3.283 -3.822)">
    <path id="Path_282" data-name="Path 282" d="M19.539,9.779h-.816A1.2,1.2,0,0,0,17.5,8.8a1.231,1.231,0,0,0-1.225.98h-.816a1.2,1.2,0,0,0-1.225-.98,1.231,1.231,0,0,0-1.225.98H12.19a1.2,1.2,0,0,0-1.229-.98,1.225,1.225,0,0,0-1.22.98H8.924A1.2,1.2,0,0,0,7.7,11v8.165a1.2,1.2,0,0,0,1.225,1.225h10.6a1.2,1.2,0,0,0,1.225-1.225L20.765,11A1.157,1.157,0,0,0,19.54,9.779Zm-2.449.245a.408.408,0,1,1,.816,0v.816a.408.408,0,1,1-.816,0Zm-3.266,0a.408.408,0,1,1,.816,0v.816a.408.408,0,1,1-.816,0Zm-3.266,0a.408.408,0,0,1,.816,0v.816a.408.408,0,0,1-.816,0Zm8.575,8.736H9.348l-.016-6.94h9.8Z" transform="translate(-4.416 -4.976)" fill="#418fde"/>
    <path id="Path_283" data-name="Path 283" d="M2244,810.292h5.389a.293.293,0,0,0,.262-.443l-2.709-4.72a.276.276,0,0,0-.5,0l-2.709,4.72a.314.314,0,0,0,.264.443Zm3.035-.656h-.665v-.665h.665Zm0-1.329h-.665v-1.661h.665Z" transform="translate(-2236.883 -797.324)" fill="#13294b"/>
  </g>
</svg>
