<svg xmlns="http://www.w3.org/2000/svg" width="19.455" height="20" viewBox="0 0 19.455 20">
  <path id="gear" d="M637.729,1326h-4a.49.49,0,0,1-.49-.419l-.38-2.651a7.339,7.339,0,0,1-1.69-.98l-2.489,1a.511.511,0,0,1-.174.03.492.492,0,0,1-.436-.25l-2-3.46a.5.5,0,0,1,.12-.641l2.11-1.65a6.968,6.968,0,0,1,0-1.96l-2.11-1.65a.49.49,0,0,1-.12-.64l2-3.46a.487.487,0,0,1,.428-.254.5.5,0,0,1,.182.035l2.489,1a7.649,7.649,0,0,1,1.69-.98l.38-2.65a.49.49,0,0,1,.49-.42h4a.49.49,0,0,1,.491.42l.38,2.65a7.379,7.379,0,0,1,1.69.98l2.489-1a.51.51,0,0,1,.174-.03.492.492,0,0,1,.436.25l2,3.46a.5.5,0,0,1-.12.64l-2.11,1.65a7.846,7.846,0,0,1,.07.98,7.62,7.62,0,0,1-.07.98l2.11,1.65a.5.5,0,0,1,.12.641l-2,3.46a.487.487,0,0,1-.428.254.5.5,0,0,1-.182-.035l-2.489-1a7.61,7.61,0,0,1-1.69.98l-.38,2.651A.49.49,0,0,1,637.729,1326Zm-2-14a4,4,0,1,0,4,4A4,4,0,0,0,635.729,1312Z" transform="translate(-626 -1306)" fill="#418fde"/>
</svg>
