<svg xmlns="http://www.w3.org/2000/svg" width="28.165" height="25.035" viewBox="0 0 28.165 25.035">
  <g id="Group_35685" data-name="Group 35685" transform="translate(-4.769 -6.259)">
    <path id="Path_382" data-name="Path 382" d="M-2353.5-544.916l1.486-.5a1.206,1.206,0,0,1,1.174-.782,1.294,1.294,0,0,1,.939.391h3.833v-.861a3.286,3.286,0,0,1-2.347-3.129,3.222,3.222,0,0,1,3.208-3.208,3.172,3.172,0,0,1,2.279.929,3.172,3.172,0,0,1,.929,2.279,3.286,3.286,0,0,1-2.347,3.129v.861h3.6a1.252,1.252,0,0,1,1.1-.626c.078,0,.235.078.313.078l4.694-4.3v-.156a1.371,1.371,0,0,1,1.33-1.33,1.336,1.336,0,0,1,1.017.547h.7v1.507l-.7-.02a1.222,1.222,0,0,1-1.017.548h-.235l-4.772,4.381v.078a1.371,1.371,0,0,1-1.33,1.33,1.263,1.263,0,0,1-1.017-.469h-9.075a1.161,1.161,0,0,1-1.1.626,1.635,1.635,0,0,1-.861-.313l-1.8.626Zm6.572-4.8a1.82,1.82,0,0,0,1.8,1.8,1.772,1.772,0,0,0,1.281-.519,1.772,1.772,0,0,0,.519-1.281,1.772,1.772,0,0,0-.519-1.281,1.769,1.769,0,0,0-1.281-.518,1.77,1.77,0,0,0-1.281.518A1.771,1.771,0,0,0-2346.928-549.714Z" transform="translate(2361.398 570.212)" fill="#13294b"/>
    <path id="Path_383" data-name="Path 383" d="M-2953.871-537.965a3.138,3.138,0,0,1-3.13-3.129v-18.776a3.138,3.138,0,0,1,3.129-3.129h21.906a3.139,3.139,0,0,1,3.129,3.129v18.776a3.138,3.138,0,0,1-3.129,3.129Zm0-3.129h21.906v-18.776h-21.906Zm12.37-13.023a2.218,2.218,0,0,1-.407-1.425v-.835a2.221,2.221,0,0,1,.405-1.427,1.389,1.389,0,0,1,1.146-.5,1.39,1.39,0,0,1,1.147.5,2.22,2.22,0,0,1,.407,1.428v.832a2.216,2.216,0,0,1-.4,1.427,1.386,1.386,0,0,1-1.144.5,1.393,1.393,0,0,1-1.15-.5Zm.758-3.147a1.571,1.571,0,0,0-.131.685v1.167a1.68,1.68,0,0,0,.125.749.421.421,0,0,0,.4.235.415.415,0,0,0,.391-.235,1.6,1.6,0,0,0,.129-.723v-1.13a1.668,1.668,0,0,0-.125-.735.417.417,0,0,0-.4-.243.407.407,0,0,0-.391.235Zm-9.4,3.147a2.216,2.216,0,0,1-.407-1.425v-.835a2.226,2.226,0,0,1,.406-1.427,1.388,1.388,0,0,1,1.146-.5,1.39,1.39,0,0,1,1.148.5,2.225,2.225,0,0,1,.406,1.428v.832a2.217,2.217,0,0,1-.406,1.427,1.384,1.384,0,0,1-1.143.5,1.392,1.392,0,0,1-1.15-.5Zm.757-3.147a1.563,1.563,0,0,0-.13.685v1.167a1.679,1.679,0,0,0,.125.749.42.42,0,0,0,.4.235.415.415,0,0,0,.391-.235,1.6,1.6,0,0,0,.129-.723v-1.13a1.664,1.664,0,0,0-.126-.735.418.418,0,0,0-.4-.243.408.408,0,0,0-.391.235Zm13.057,3.589v-3.379l-1.017.3v-.8l1.956-.694h.095v4.568Zm-8.638,0v-3.379l-1.017.3v-.8l1.956-.694h.1v4.568Z" transform="translate(2961.77 569.259)" fill="#418fde"/>
  </g>
</svg>
