<svg xmlns="http://www.w3.org/2000/svg" width="15.181" height="18.39" viewBox="0 0 15.181 18.39">
  <path id="Union_3" data-name="Union 3" d="M-8735.415-3415.609v-13.4h2.046v13.4Zm5.481-3.655v-9.746h2.048v9.746Zm5.483-2.219v-7.527h2.046v7.527Zm1.482-9.991.226-.2h-11.311l.192.2c.551.515-.257,1.324-.807.807l-1.162-1.195a.527.527,0,0,1,0-.776l1.162-1.195c.55-.518,1.357.289.807.807l-.192.193h11.311l-.226-.193a.571.571,0,0,1,.809-.807l1.2,1.195a.594.594,0,0,1,0,.776l-1.2,1.195a.528.528,0,0,1-.378.166A.581.581,0,0,1-8722.968-3431.474Z" transform="translate(8736 3433.999)" fill="#333f48"/>
</svg>
