<svg xmlns="http://www.w3.org/2000/svg" width="11.369" height="11.366" viewBox="0 0 11.369 11.366">
  <g id="Group_35687" data-name="Group 35687" transform="translate(-47.343 -68.874)">
    <path id="equipment-detail" d="M-2349.3-3675.9l-1.277-1.23a5.377,5.377,0,0,1-3.031.927,5.4,5.4,0,0,1-5.394-5.4,5.4,5.4,0,0,1,5.394-5.4,5.4,5.4,0,0,1,5.405,5.4,5.368,5.368,0,0,1-.967,3.084l1.269,1.221a.918.918,0,0,1,.267.676,1.01,1.01,0,0,1-.3.691,1,1,0,0,1-.712.3A.919.919,0,0,1-2349.3-3675.9Zm-8.622-5.7a4.319,4.319,0,0,0,4.32,4.319,4.319,4.319,0,0,0,4.319-4.319,4.319,4.319,0,0,0-4.319-4.319,4.32,4.32,0,0,0-4.32,4.321Z" transform="translate(2406.344 3755.876)" fill="#418fde"/>
    <path id="Path_106093" data-name="Path 106093" d="M159.053,57.879a2.609,2.609,0,0,1,1.622,2.379,3.82,3.82,0,0,1-.087,1.233,2.577,2.577,0,0,0-.151-1.038,2.739,2.739,0,0,0-1.752-1.8Z" transform="translate(-107.84 14.172)" fill="#418fde" fill-rule="evenodd"/>
    <path id="Path_106094" data-name="Path 106094" d="M3.455,66.574l.627.541-2.66,3.158A.414.414,0,1,1,.8,69.732Z" transform="translate(48.607 5.563)" fill="#418fde" fill-rule="evenodd"/>
    <path id="Path_106095" data-name="Path 106095" d="M198.866,302.248l.541.67,1.406-1.557,2.011,2.228h-5Z" transform="translate(-146.652 -226.888)" fill="#418fde" fill-rule="evenodd"/>
  </g>
</svg>
