<svg xmlns="http://www.w3.org/2000/svg" width="15.045" height="9.027" viewBox="0 0 15.045 9.027">
  <path id="noun-low-battery-797382" d="M84.292,115.009H83.54v-2.257a.711.711,0,0,0-.752-.752H70.752a.711.711,0,0,0-.752.752v7.522a.711.711,0,0,0,.752.752H82.788a.711.711,0,0,0,.752-.752v-2.257h.752a.711.711,0,0,0,.752-.752v-1.5A.711.711,0,0,0,84.292,115.009Zm-10.531,4.212a.324.324,0,0,1-.3.3H71.805a.324.324,0,0,1-.3-.3v-5.416a.324.324,0,0,1,.3-.3H73.46a.324.324,0,0,1,.3.3Z" transform="translate(-70 -112)" fill="#6abf4a"/>
</svg>
