<svg xmlns="http://www.w3.org/2000/svg" width="19" height="14" viewBox="0 0 19 14">
  <path id="Union_23" data-name="Union 23" d="M22745.908-6104.335a2.566,2.566,0,0,1-1.387-1.594h-3.934a2.588,2.588,0,0,1-1.391,1.592,2.52,2.52,0,0,1-2.094,0,2.574,2.574,0,0,1-1.381-1.592h-1.4a.783.783,0,0,1-.559-.236.818.818,0,0,1-.23-.572l.1-8.542a.824.824,0,0,1,.236-.572.784.784,0,0,1,.561-.236h8.205l.262-1.372a.818.818,0,0,1,.275-.464.789.789,0,0,1,.506-.184h1.494a.79.79,0,0,1,.477.161.817.817,0,0,1,.285.418h0l.426,1.441h1.158a.8.8,0,0,1,.646.329l2.494,3.5,1.617,1.474a.827.827,0,0,1,.26.606v3.442a.813.813,0,0,1-.234.572.79.79,0,0,1-.559.236h-2.357a2.563,2.563,0,0,1-1.385,1.594,2.5,2.5,0,0,1-1.049.228A2.487,2.487,0,0,1,22745.908-6104.335Zm.367-3.043a.993.993,0,0,0-.277.688,1,1,0,0,0,.277.688.964.964,0,0,0,.68.285.936.936,0,0,0,.676-.286.982.982,0,0,0,.283-.687.965.965,0,0,0-.283-.688.932.932,0,0,0-.676-.286A.961.961,0,0,0,22746.275-6107.378Zm-8.8,0a1,1,0,0,0-.279.688,1,1,0,0,0,.279.688.968.968,0,0,0,.68.285.957.957,0,0,0,.678-.286,1,1,0,0,0,.281-.687.979.979,0,0,0-.281-.688.953.953,0,0,0-.678-.286A.964.964,0,0,0,22737.475-6107.378Zm10.5-1.683a2.588,2.588,0,0,1,1.387,1.526h1.586l.006-2.285-1.193-1.089h-5.293a.791.791,0,0,1-.564-.237.816.816,0,0,1-.23-.571v-2.754h-8.453l-.082,6.935h.613a2.563,2.563,0,0,1,1.385-1.529,2.5,2.5,0,0,1,2.045,0,2.566,2.566,0,0,1,1.383,1.529h3.982a2.585,2.585,0,0,1,1.385-1.526,2.516,2.516,0,0,1,1.023-.217A2.527,2.527,0,0,1,22747.973-6109.062Zm-2.717-3.462h3.25l-1.391-1.947h-1.859Zm-1.006-3.563h.451l-.119-.4h-.254Zm-5.191,6.5v-1.247h-1.227v-1.615h1.227v-1.247h1.59v1.247h1.229v1.615h-1.229v1.247Z" transform="translate(-22733.537 6118.107)" fill="#b2292e"/>
</svg>
