<svg xmlns="http://www.w3.org/2000/svg" width="19.567" height="18.855" viewBox="0 0 19.567 18.855">
  <path id="Path_106102" data-name="Path 106102" d="M142.143,30.083a.259.259,0,0,0-.127-.2l-6.286-3.629a.259.259,0,0,0-.259,0l-6.286,3.629a.259.259,0,0,0-.13.226v7.258a.259.259,0,0,0,.13.226l6.286,3.629a.259.259,0,0,0,.259,0l6.286-3.629a.259.259,0,0,0,.13-.226V30.1s0,0,0-.021Zm-6.8,10.459-5.767-3.331V30.551l5.767,3.331Zm6.286-3.331-5.767,3.331V33.882l5.767-3.331Z" transform="translate(48.371 143.727) rotate(-120)" fill="#a2aaa4"/>
</svg>
