<svg xmlns="http://www.w3.org/2000/svg" width="8.639" height="13.575" viewBox="0 0 8.639 13.575">
  <g id="Group_34878" data-name="Group 34878" transform="translate(-431.047 -272.81)">
    <path id="perm_device_information" d="M12.4,1.006,6.234,1A1.238,1.238,0,0,0,5,2.234V13.341a1.238,1.238,0,0,0,1.234,1.234H12.4a1.238,1.238,0,0,0,1.234-1.234V2.234A1.232,1.232,0,0,0,12.4,1.006Zm0,11.1H6.234V3.468H12.4Z" transform="translate(426.047 271.81)" fill="#418fde"/>
    <path id="perm_device_information-2" data-name="perm_device_information" d="M7.65,5.857H6.416V7.092H7.65Zm0,2.468H6.416v3.7H7.65ZM5,14.5Z" transform="translate(428.333 270.654)" fill="#13294b"/>
  </g>
</svg>
