<svg xmlns="http://www.w3.org/2000/svg" width="10.913" height="13.1" viewBox="0 0 10.913 13.1">
  <g id="Group_35685" data-name="Group 35685" transform="translate(-4.811 -3.275)">
    <path id="Path_367" data-name="Path 367" d="M-885.475-101.9H-895V-115h9.825v5.143a4.085,4.085,0,0,0-2.737-1.05h-5.451v.819h2.994a4.09,4.09,0,0,0-1.09,1.228h-1.9v.819h1.544a4.092,4.092,0,0,0-.187,1.228h-1.357v.819h1.439a4.061,4.061,0,0,0,.466,1.228h-1.9v.819h2.527a4.063,4.063,0,0,0,2.923,1.228,4.094,4.094,0,0,0,1.246-.193l.652.652a1.626,1.626,0,0,0,.539.359Zm-7.887-11.053h0v.819h6.55v-.819Z" transform="translate(899.811 118.275)" fill="#13294b"/>
    <path id="Path_368" data-name="Path 368" d="M-885.4-104.246a.813.813,0,0,1-.579-.24l-.983-.982a3.24,3.24,0,0,1-1.443.334,3.254,3.254,0,0,1-2.315-.96,3.255,3.255,0,0,1-.96-2.316,3.279,3.279,0,0,1,3.275-3.275,3.279,3.279,0,0,1,3.275,3.275,3.253,3.253,0,0,1-.586,1.87l.9.9a.814.814,0,0,1,.24.579.814.814,0,0,1-.24.579.814.814,0,0,1-.581.239Zm-3.006-6.211a2.049,2.049,0,0,0-2.047,2.047,2.049,2.049,0,0,0,2.047,2.047,2.049,2.049,0,0,0,2.047-2.047A2.047,2.047,0,0,0-888.409-110.456Z" transform="translate(900.307 119.872)" fill="#418fde"/>
  </g>
</svg>
