<svg xmlns="http://www.w3.org/2000/svg" width="19.858" height="19.854" viewBox="0 0 19.858 19.854">
  <path id="equipment-detail" d="M-2342.054-3667.613l-2.231-2.148a9.4,9.4,0,0,1-5.294,1.62,9.432,9.432,0,0,1-9.421-9.431,9.431,9.431,0,0,1,9.421-9.43,9.436,9.436,0,0,1,9.442,9.429,9.379,9.379,0,0,1-1.688,5.387l2.216,2.133a1.6,1.6,0,0,1,.467,1.181,1.759,1.759,0,0,1-.521,1.206,1.75,1.75,0,0,1-1.244.517A1.6,1.6,0,0,1-2342.054-3667.613Zm-15.06-9.96a7.545,7.545,0,0,0,7.546,7.545,7.544,7.544,0,0,0,7.544-7.545,7.544,7.544,0,0,0-7.545-7.545,7.545,7.545,0,0,0-7.546,7.549Z" transform="translate(2359 3687.003)" fill="#418fde"/>
</svg>
