<svg id="lubrication_system" xmlns="http://www.w3.org/2000/svg" width="48.536" height="50.396" viewBox="0 0 48.536 50.396">
  <g id="Group_14785" data-name="Group 14785" transform="translate(0 0)">
    <g id="Group_14784" data-name="Group 14784">
      <g id="Group_14783" data-name="Group 14783">
        <path id="Path_23884" data-name="Path 23884" d="M456.834,105.152v-.195c-.069-.944.447-1.365,1.293-1.692,1.934-.749,3.818-1.623,5.734-2.425a.843.843,0,0,0,.506-.676c.226-.815.532-1.61.837-2.4q1.415-3.633,2.846-7.256a3.146,3.146,0,0,1,2.765-2.107.683.683,0,0,0,.44-.343c.214-.44.362-.912.557-1.362a3.117,3.117,0,0,1,4.029-1.727q2.475.944,4.928,1.931a3.145,3.145,0,0,1,1.805,4.035,2.085,2.085,0,0,1-.1.277c-.381.736-.56,1.315.264,2.029a2.636,2.636,0,0,1,.557,3.054q-1.755,4.576-3.579,9.121a3.108,3.108,0,0,1-4.167,1.758c-3.208-1.258-6.41-2.538-9.621-3.793a1.063,1.063,0,0,0-.566,0q-4.173.874-8.347,1.761A1.041,1.041,0,0,1,456.834,105.152ZM472.667,88.8l7.863,3.079c.223-.585.453-1.091.61-1.62a1.487,1.487,0,0,0-.865-1.865q-2.516-1.032-5.064-1.988a1.494,1.494,0,0,0-1.887.758c-.23.519-.425,1.063-.657,1.642Z" transform="translate(-435.017 -84.752)" fill="#00225a"/>
        <path id="Path_23885" data-name="Path 23885" d="M126.107,456.347c.214.12.4.22.579.315.629.365.846.337,1.286-.248a.685.685,0,0,0,0-.525c-.315-.925-.315-.89.525-1.406.466-.29.723-.22,1.035.211.434.6.654.629,1.283.227a.679.679,0,0,0,.179-.494c.025-.994.025-.962,1.016-1.148.522-.1.72.066.859.544.2.717.39.815,1.126.66.138-.028.286-.236.346-.393.352-.906.343-.912,1.293-.739.208.038.409.091.651.148a6.062,6.062,0,0,1,0,.745.676.676,0,0,0,.563.843c.381.119.61.094.815-.239.085-.138.217-.245.314-.381a.355.355,0,0,1,.576-.11,2.293,2.293,0,0,0,.214.119c.884.487.925.5.544,1.409-.223.532.2.629.418.893s.447.145.683,0c.821-.484.827-.484,1.422.252.532.664.459.5,0,1.073s-.462.811.028,1.315a.71.71,0,0,0,.525.082c.944-.135.922-.132,1.286.767.192.478.123.755-.359.944s-.739.387-.56.981c.11.358.223.506.585.56.944.145.9-.085.9,1.088,0,.7,0,.7-.717.818s-.884.355-.821,1.038c0,.132.189.28.315.365.852.519.824.5.519,1.45-.164.506-.412.594-.9.487-.783-.176-.862-.123-1.142.629a.629.629,0,0,0,.154.494c.629.8.629.774-.041,1.573-.315.371-.532.39-.944.145-.837-.516-.522-.494-1.258.107a.63.63,0,0,0-.142.484,1.653,1.653,0,0,0,.214.594c.176.315.057.516-.239.657l-.041.025c-.944.582-.944.588-1.654-.236-.179-.211-.349-.286-.582-.138s-.755.041-.692.585a.44.44,0,0,1,0,.1c-.031.315.035.821-.12.9a4.194,4.194,0,0,1-1.327.283.4.4,0,0,1-.242-.182,2.1,2.1,0,0,1-.164-.409c-.223-.629-.576-.84-1.192-.629-.138.047-.248.273-.315.44-.315.868-.315.871-1.239.689-.689-.135-.689-.135-.692-.874,0-.629-.28-.944-.9-.959-.145,0-.314.182-.44.315-.6.7-.594.7-1.356.251-.629-.38-.629-.38-.393-1.076.226-.629.116-.943-.51-1.214a.662.662,0,0,0-.475.11c-.865.475-.84.462-1.475-.251-.343-.387-.387-.657,0-1.054.538-.541.519-.72.019-1.305a.591.591,0,0,0-.466-.116c-1.035.157-1.013.157-1.387-.827-.16-.421-.1-.67.314-.84.5-.195.8-.453.6-1.1a.591.591,0,0,0-.563-.469c-.925-.179-.925-.182-.912-1.1,0-.714,0-.714.711-.821s.89-.34.818-1.025c-.016-.157-.233-.315-.393-.425-.767-.462-.771-.453-.466-1.3.248-.683.248-.683,1-.554a.843.843,0,0,0,1.095-.742c.022-.16-.151-.371-.277-.525-.538-.654-.544-.651,0-1.3A5.44,5.44,0,0,0,126.107,456.347Zm7.574.164a7.234,7.234,0,1,0,7.2,7.268,7.234,7.234,0,0,0-7.2-7.268Z" transform="translate(-123.038 -429.22)" fill="#00225a"/>
        <path id="Path_23886" data-name="Path 23886" d="M463.463,516.426a2.377,2.377,0,0,0-.365-.377c-.233-.148-.528.057-.535.393a.358.358,0,0,1-.355.418c-.264.044-.425,0-.538-.264a.525.525,0,0,0-.374-.267.44.44,0,0,0-.315.264c-.094.315-.27.315-.525.267s-.362-.135-.374-.406a.506.506,0,0,0-.242-.39.5.5,0,0,0-.431.157.314.314,0,0,1-.538.05,1.066,1.066,0,0,1-.255-.434c-.057-.173,0-.453-.1-.528s-.359,0-.544.038a.877.877,0,0,0-.167.063c-.277-.248-.661-.431-.233-.909a.34.34,0,0,0-.34-.538c-.315.035-.472,0-.591-.33s.094-.412.286-.566a.431.431,0,0,0,.116-.371.415.415,0,0,0-.283-.258c-.315-.031-.4-.173-.4-.478s.11-.4.384-.443a.45.45,0,0,0,.315-.292.465.465,0,0,0-.182-.384.387.387,0,0,1-.208-.554.419.419,0,0,1,.55-.315c.315.054.582-.292.387-.5-.428-.45-.107-.673.2-.943a1.238,1.238,0,0,0,.315.142.628.628,0,0,0,.421-.038.45.45,0,0,0,.1-.4c-.082-.258-.063-.412.2-.56a.411.411,0,0,1,.629.1.435.435,0,0,0,.4.1.466.466,0,0,0,.229-.356c0-.315.135-.39.4-.434s.39-.025.491.242a.5.5,0,0,0,.362.286.525.525,0,0,0,.359-.292c.113-.252.274-.315.5-.217a1.161,1.161,0,0,1,.371.337c.107.138.157.415.261.431.157.022.34-.126.506-.211a.89.89,0,0,0,.157-.135c.359.157.77.239.506.811-.107.236.22.484.478.387a3.634,3.634,0,0,0,.377-.195c.258.255.711.428.249.906a.35.35,0,0,0,.346.538.409.409,0,0,1,.547.315.393.393,0,0,1-.2.557.466.466,0,0,0-.179.384.45.45,0,0,0,.314.293c.3.044.368.189.365.462s-.076.415-.371.456a.443.443,0,0,0-.3.3.484.484,0,0,0,.192.377c.2.138.314.248.2.516s-.217.4-.532.346a.362.362,0,0,0-.333.6.4.4,0,0,1,0,.595c-.2.252-.362.245-.629.094s-.651.088-.535.333C464.249,516.161,463.859,516.262,463.463,516.426Zm1.258-4.457a2.544,2.544,0,1,0,.006,0Z" transform="translate(-434.572 -479.498)" fill="#00225a"/>
        <path id="Path_23889" data-name="Path 23889" d="M192.427,514.866a6.454,6.454,0,1,1-6.482,6.438,6.454,6.454,0,0,1,6.482-6.438Zm5.208,6.473a5.23,5.23,0,1,0-1.544,3.7,5.227,5.227,0,0,0,1.544-3.7Z" transform="translate(-181.81 -486.801)" fill="#00225a"/>
        <path id="Path_23890" data-name="Path 23890" d="M486.112,539.1a3.032,3.032,0,1,1,3.032,3.032,3.032,3.032,0,0,1-3.032-3.032Zm.569,0a2.466,2.466,0,1,0,2.444-2.482,2.466,2.466,0,0,0-2.444,2.482Z" transform="translate(-462.389 -506.608)" fill="#00225a"/>
      </g>
      <path id="Path_23892" data-name="Path 23892" d="M409.313,668.089l.346.195c.371.217.5.2.767-.148a.407.407,0,0,0,0-.314c-.189-.551-.182-.532.314-.837.277-.173.431-.132.629.126.258.358.39.371.764.135a.406.406,0,0,0,.107-.3c0-.592,0-.573.6-.686.315-.06.431.041.513.314.123.428.233.484.67.393.082-.019.17-.142.208-.233.211-.541.2-.544.771-.44.123.022.245.053.387.088a3.644,3.644,0,0,1,0,.443.4.4,0,0,0,.333.5c.226.073.365.057.484-.145.05-.082.129-.148.182-.226a.211.211,0,0,1,.343-.066,1.262,1.262,0,0,0,.129.069c.528.289.55.314.315.84-.132.314.116.378.248.532s.267.085.406,0c.491-.289.494-.289.846.151s.274.3,0,.629-.277.484.016.783a.424.424,0,0,0,.315.047c.566-.082.55-.078.767.456.113.283.072.45-.214.566s-.44.23-.333.585c.066.214.135.314.349.333.554.085.535-.05.538.648,0,.415,0,.415-.428.488s-.528.211-.491.629c0,.079.113.167.192.217.506.314.491.314.315.862-.1.314-.245.355-.535.289-.469-.1-.513-.072-.679.374a.38.38,0,0,0,.091.3c.374.475.365.459-.025.944-.179.22-.315.233-.553.085-.5-.314-.315-.3-.749.063a.375.375,0,0,0-.085.286.994.994,0,0,0,.129.355c.107.192.035.314-.142.393h-.025c-.56.346-.563.352-.984-.142-.107-.126-.208-.173-.346-.082s-.45.025-.412.349a.268.268,0,0,1,0,.057c-.019.189.019.491-.072.538a2.507,2.507,0,0,1-.789.17.238.238,0,0,1-.145-.11,1.267,1.267,0,0,1-.1-.242c-.132-.377-.343-.5-.711-.38-.082.028-.148.163-.186.264-.192.516-.189.519-.739.409-.412-.082-.412-.082-.412-.519,0-.371-.167-.566-.538-.573-.088,0-.192.107-.261.189-.355.415-.352.418-.808.148-.381-.226-.381-.226-.233-.629s.069-.557-.315-.723a.394.394,0,0,0-.283.066c-.516.283-.5.277-.877-.151-.2-.229-.23-.393,0-.629.314-.314.314-.428,0-.777a.352.352,0,0,0-.277-.069c-.629.094-.6.094-.824-.491-.094-.252-.06-.4.2-.5s.478-.27.359-.654a.353.353,0,0,0-.337-.28c-.55-.107-.55-.11-.544-.654,0-.425,0-.425.425-.491s.528-.2.488-.61c0-.094-.138-.2-.236-.255-.456-.274-.459-.271-.277-.774.148-.406.148-.406.6-.33a.5.5,0,0,0,.651-.44.647.647,0,0,0-.163-.314c-.315-.39-.315-.387,0-.774C409.086,668.319,409.2,668.212,409.313,668.089Zm4.51.1a4.306,4.306,0,1,0,3.043,1.276,4.309,4.309,0,0,0-3.043-1.276Z" transform="translate(-388.911 -628.312)" fill="#00225a"/>
      <path id="Path_23893" data-name="Path 23893" d="M448.824,702.949a3.843,3.843,0,1,1-3.862,3.834,3.843,3.843,0,0,1,3.862-3.834Zm3.1,3.856a3.123,3.123,0,1,0-.927,2.209,3.114,3.114,0,0,0,.927-2.209Z" transform="translate(-423.928 -662.612)" fill="#00225a"/>
    </g>
  </g>
</svg>
