<svg id="Group_14795" data-name="Group 14795" xmlns="http://www.w3.org/2000/svg" width="23.39" height="50.004" viewBox="0 0 23.39 50.004">
  <path id="Path_23924" data-name="Path 23924" d="M10.625,290.154a47.042,47.042,0,0,0-7.648.622v6.192L18.3,293.434v-2.657a47.106,47.106,0,0,0-7.67-.622Z" transform="translate(1.056 -280.272)" fill="#00225a" fill-rule="evenodd"/>
  <path id="Path_23925" data-name="Path 23925" d="M18.3,291.817,2.975,295.355v6.257L18.3,298.074v-6.257Z" transform="translate(1.051 -271.797)" fill="#00225a" fill-rule="evenodd"/>
  <path id="Path_23926" data-name="Path 23926" d="M18.3,293.969,2.975,297.507v3.046H18.3Z" transform="translate(1.051 -260.83)" fill="#00225a" fill-rule="evenodd"/>
  <path id="Path_23927" data-name="Path 23927" d="M20.516,288.533v9.276a49.187,49.187,0,0,0-17.736,0v-9.276Z" transform="translate(0.048 -288.533)" fill="#00225a" fill-rule="evenodd"/>
  <path id="Path_23928" data-name="Path 23928" d="M3.927,295.28a1.612,1.612,0,0,0-1.612,1.612v7.259H5.542v-1.612H8.768v1.612H12.4v-1.612h3.227v1.612h3.628v-1.612h3.227v1.612H25.7V296.9a1.612,1.612,0,0,0-1.612-1.612H3.927Z" transform="translate(-2.315 -254.148)" fill="#00225a" fill-rule="evenodd"/>
  <path id="Path_23929" data-name="Path 23929" d="M3.866,295.207l18.545-4.282a1.886,1.886,0,0,1,2.265,1.416l.019.078a1.886,1.886,0,0,1-1.416,2.265L4.734,298.966a1.886,1.886,0,0,1-2.265-1.416l-.019-.065a1.886,1.886,0,0,1,1.416-2.265Z" transform="translate(-1.878 -276.59)" fill="#00225a"/>
  <path id="Path_23930" data-name="Path 23930" d="M3.866,297.359l18.545-4.282a1.885,1.885,0,0,1,2.265,1.416l.019.078a1.886,1.886,0,0,1-1.416,2.265L4.734,301.118A1.886,1.886,0,0,1,2.469,299.7l-.019-.078a1.886,1.886,0,0,1,1.416-2.265Z" transform="translate(-1.878 -265.624)" fill="#00225a"/>
</svg>
