<svg xmlns="http://www.w3.org/2000/svg" width="13.581" height="13.586" viewBox="0 0 13.581 13.586">
  <g id="Group_35686" data-name="Group 35686" transform="translate(-44.202 -87.203)">
    <g id="Path_106065" data-name="Path 106065" transform="translate(-81.693 21.275)" fill="#418fde">
      <path d="M 134.581787109375 79.46359252929688 C 134.4813842773438 79.46359252929688 134.3813323974609 79.43672180175781 134.2924041748047 79.38587951660156 L 132.9260711669922 78.60359954833984 C 132.8525238037109 78.56146240234375 132.7694244384766 78.53919219970703 132.6857299804688 78.53919219970703 C 132.6019744873047 78.53919219970703 132.5188751220703 78.56142425537109 132.4454040527344 78.60346984863281 L 131.0789031982422 79.38573455810547 C 130.989990234375 79.43659210205078 130.889892578125 79.46347045898438 130.7894287109375 79.46347045898438 C 130.5569763183594 79.46347045898438 130.3427276611328 79.32185363769531 130.2435913085938 79.10268402099609 L 129.5772705078125 77.62918853759766 C 129.5035705566406 77.46596527099609 129.3578033447266 77.35472106933594 129.1873626708984 77.33161163330078 L 127.6427230834961 77.12255096435547 C 127.4816284179688 77.10073089599609 127.3387832641602 77.01443481445312 127.2405090332031 76.87956237792969 C 127.1377182006836 76.73847961425781 127.0966033935547 76.55767059326172 127.1277236938477 76.38348388671875 L 127.4142532348633 74.78021240234375 C 127.4460754394531 74.60214233398438 127.3901748657227 74.42161560058594 127.2647171020508 74.29730224609375 L 126.1330032348633 73.17645263671875 C 126.0118942260742 73.05650329589844 125.945198059082 72.89450073242188 125.945198059082 72.72028350830078 C 125.9451904296875 72.54604339599609 126.0118789672852 72.38400268554688 126.1329956054688 72.26402282714844 L 127.2647247314453 71.14316558837891 C 127.3901672363281 71.01885986328125 127.4460754394531 70.83832550048828 127.4142532348633 70.66023254394531 L 127.1277236938477 69.05699920654297 C 127.0966339111328 68.88275146484375 127.1377944946289 68.70191192626953 127.2406463623047 68.56081390380859 C 127.3389358520508 68.42597198486328 127.4817733764648 68.33971405029297 127.6428604125977 68.31792449951172 L 129.1875305175781 68.10886383056641 C 129.3577423095703 68.08589172363281 129.5035095214844 67.97467041015625 129.5774536132812 67.81137084960938 L 130.2435913085938 66.33792114257812 C 130.3427886962891 66.11874389648438 130.5570373535156 65.97711944580078 130.7894287109375 65.97711944580078 C 130.8898773193359 65.97711944580078 130.9899749755859 66.00399017333984 131.0788879394531 66.05482482910156 L 132.4454040527344 66.83712005615234 C 132.5189514160156 66.87924194335938 132.60205078125 66.90150451660156 132.6857299804688 66.90150451660156 C 132.7694091796875 66.90150451660156 132.8525238037109 66.87924194335938 132.9260711669922 66.83712005615234 L 134.2925415039062 66.05484008789062 C 134.3814086914062 66.00399017333984 134.4814910888672 65.97711944580078 134.5819549560547 65.97711944580078 C 134.8143157958984 65.97711944580078 135.0285797119141 66.11872863769531 135.1278381347656 66.337890625 L 135.7940673828125 67.81153106689453 C 135.86767578125 67.97476196289062 136.013427734375 68.08599090576172 136.1839599609375 68.10910034179688 L 137.7285919189453 68.31815338134766 C 137.8897399902344 68.33998870849609 138.0326080322266 68.42630004882812 138.130859375 68.56118011474609 C 138.2336273193359 68.70223999023438 138.2747039794922 68.88304138183594 138.2435607910156 69.05722045898438 L 137.95703125 70.66049194335938 C 137.9252624511719 70.83856964111328 137.9811401367188 71.01911163330078 138.1065368652344 71.14342498779297 L 139.2381439208984 72.26425170898438 C 139.3592224121094 72.38420104980469 139.4259185791016 72.54621124267578 139.4259185791016 72.72044372558594 C 139.4259338378906 72.89469146728516 139.3592529296875 73.05673217773438 139.2381439208984 73.17671966552734 L 138.1064300537109 74.29758453369141 C 137.9810028076172 74.42182922363281 137.9250793457031 74.60236358642578 137.9568634033203 74.78049468994141 L 138.2434692382812 76.38374328613281 C 138.2746124267578 76.55786895751953 138.2335357666016 76.73867034912109 138.1307525634766 76.87975311279297 C 138.032470703125 77.01467132568359 137.8896026611328 77.10100555419922 137.7284393310547 77.12283325195312 L 136.183837890625 77.33187103271484 C 136.0135650634766 77.35485076904297 135.8678131103516 77.46604919433594 135.7939300537109 77.62933349609375 L 135.1277618408203 79.102783203125 C 135.0285339355469 79.32197570800781 134.8142395019531 79.46359252929688 134.581787109375 79.46359252929688 Z M 127.7833862304688 76.45712280273438 L 129.2722015380859 76.65357208251953 C 129.6663360595703 76.70687866210938 130.0028228759766 76.9627685546875 130.1724395751953 77.33810424804688 L 130.8160552978516 78.76129150390625 L 132.1282653808594 78.00440979003906 C 132.2987976074219 77.90679168701172 132.4915618896484 77.85523986816406 132.6858825683594 77.85523986816406 C 132.8804016113281 77.85523986816406 133.0732116699219 77.90689086914062 133.2434539794922 78.00459289550781 L 134.5618743896484 78.75941467285156 L 135.1990509033203 77.33847045898438 C 135.3689117431641 76.96294403076172 135.7053985595703 76.70700836181641 136.0992431640625 76.65372467041016 L 137.5920257568359 76.45165252685547 L 137.3108520507812 74.9056396484375 C 137.2382659912109 74.49893951416016 137.3663330078125 74.08650970458984 137.6534118652344 73.80223846435547 L 138.7490692138672 72.71704864501953 L 137.6535186767578 71.63882446289062 C 137.3662719726562 71.35424041748047 137.2382049560547 70.94182586669922 137.3108215332031 70.53548431396484 L 137.5881652832031 68.98372650146484 L 136.0994110107422 68.78722381591797 C 135.7053070068359 68.73380279541016 135.3688201904297 68.47788238525391 135.1991119384766 68.10260009765625 L 134.5556793212891 66.67938995361328 L 133.2431488037109 67.43618011474609 C 133.0726928710938 67.53377532958984 132.8799591064453 67.58531951904297 132.6856384277344 67.58531951904297 C 132.4913177490234 67.58531951904297 132.2985534667969 67.53377532958984 132.1281433105469 67.43626403808594 L 130.8138885498047 66.68375396728516 L 130.1724700927734 68.10232543945312 C 130.002685546875 68.47776031494141 129.6661987304688 68.73371124267578 129.2723541259766 68.78697967529297 L 127.779541015625 68.98902893066406 L 128.0606994628906 70.53504943847656 C 128.1333770751953 70.94166564941406 128.0053558349609 71.35408020019531 127.7182769775391 71.63844299316406 L 126.6225357055664 72.72377777099609 L 127.7181549072266 73.80200958251953 C 128.0053405761719 74.08652496337891 128.1333618164062 74.49893951416016 128.0607299804688 74.90534210205078 L 127.7833862304688 76.45712280273438 Z" stroke="none"/>
      <path d="M 130.7894287109375 66.02712249755859 C 130.5830535888672 66.02712249755859 130.3841552734375 66.14860534667969 130.2891540527344 66.3585205078125 L 129.6230010986328 67.83199310302734 C 129.5423278808594 68.01015472412109 129.380859375 68.13322448730469 129.1942443847656 68.15840911865234 L 127.6495666503906 68.36746978759766 C 127.3345642089844 68.41007995605469 127.1186218261719 68.72129058837891 127.1769409179688 69.04820251464844 L 127.4634704589844 70.65144348144531 C 127.498046875 70.84487915039062 127.4364013671875 71.04343414306641 127.2998962402344 71.17869567871094 L 126.1681823730469 72.29954528808594 C 125.9375305175781 72.52804565429688 125.9375305175781 72.9124755859375 126.1681823730469 73.14092254638672 L 127.2998962402344 74.26177978515625 C 127.4364013671875 74.39703369140625 127.498046875 74.59560394287109 127.4634704589844 74.78900909423828 L 127.1769409179688 76.39227294921875 C 127.1185302734375 76.71926879882812 127.3345642089844 77.03034973144531 127.6494445800781 77.07300567626953 L 129.1940765380859 77.28205871582031 C 129.3807678222656 77.30738067626953 129.5423278808594 77.43030548095703 129.6228332519531 77.60858917236328 L 130.2891540527344 79.08206939697266 C 130.4252014160156 79.38288879394531 130.7748107910156 79.50209808349609 131.0540618896484 79.34233856201172 L 132.4205627441406 78.56008148193359 C 132.5856628417969 78.46556854248047 132.7857513427734 78.465576171875 132.9509124755859 78.56021118164062 L 134.3172302246094 79.34247589111328 C 134.5966949462891 79.50227355957031 134.9460601806641 79.38294982910156 135.0821990966797 79.08218383789062 L 135.7483825683594 77.60871887207031 C 135.8290100097656 77.4305419921875 135.9904479980469 77.30752563476562 136.1771240234375 77.28232574462891 L 137.7217407226562 77.07328033447266 C 138.0367279052734 77.03060913085938 138.2527160644531 76.71942138671875 138.1942443847656 76.39253997802734 L 137.9076385498047 74.78926849365234 C 137.8731231689453 74.59583282470703 137.9347381591797 74.39728546142578 138.0712432861328 74.26205444335938 L 139.2029571533203 73.14120483398438 C 139.4335784912109 72.91268920898438 139.4335784912109 72.52824401855469 139.2029571533203 72.29977416992188 L 138.0713348388672 71.17893218994141 C 137.9349060058594 71.04368591308594 137.8733062744141 70.84508514404297 137.9078063964844 70.65169525146484 L 138.1943359375 69.04842376708984 C 138.2528076171875 68.72145080566406 138.036865234375 68.41038513183594 137.7218780517578 68.36769866943359 L 136.17724609375 68.15865325927734 C 135.9905242919922 68.13333892822266 135.8289184570312 68.01042938232422 135.7485046386719 67.83213043212891 L 135.0822906494141 66.3585205078125 C 134.9460144042969 66.05759429931641 134.5962371826172 65.93871307373047 134.3173828125 66.09822845458984 L 132.9509124755859 66.88050842285156 C 132.785888671875 66.97502136230469 132.5858001708984 66.97514343261719 132.4205627441406 66.88050842285156 L 131.0540618896484 66.09822845458984 C 130.9696807861328 66.04998016357422 130.8789367675781 66.02712249755859 130.7894287109375 66.02712249755859 M 134.5849151611328 78.83022308349609 L 133.2185668945312 78.04795837402344 C 133.0557098388672 77.95449066162109 132.8714904785156 77.90524291992188 132.6858825683594 77.90524291992188 C 132.5001831054688 77.90524291992188 132.3161163330078 77.95449066162109 132.1532440185547 78.04772186279297 L 130.7932281494141 78.83216857910156 L 130.1268768310547 77.35869598388672 C 129.9644165039062 76.99922180175781 129.6423492431641 76.75408935546875 129.2656555175781 76.70314025878906 L 127.7249450683594 76.49983978271484 L 128.0115051269531 74.89654541015625 C 128.0812683105469 74.50626373291016 127.9583740234375 74.11035919189453 127.6830749511719 73.83765411376953 L 126.5513610839844 72.72389221191406 L 127.6830749511719 71.60292053222656 C 127.9585571289062 71.33005523681641 128.0812683105469 70.93431091308594 128.0115051269531 70.54399871826172 L 127.7209777832031 68.94649505615234 L 129.2656555175781 68.73743438720703 C 129.6423492431641 68.68648529052734 129.9642639160156 68.44137573242188 130.1269073486328 68.08171844482422 L 130.7910003662109 66.61302947998047 L 132.1529846191406 67.39286041259766 C 132.3158874511719 67.48609161376953 132.5000152587891 67.53532409667969 132.6856384277344 67.53532409667969 C 132.8712005615234 67.53532409667969 133.0553436279297 67.48609161376953 133.2181701660156 67.39286041259766 L 134.5785064697266 66.60850524902344 L 135.2446746826172 68.08200073242188 C 135.4072265625 68.44145965576172 135.7292633056641 68.68659210205078 136.1059417724609 68.73765563964844 L 137.6465759277344 68.94100189208984 L 137.3600463867188 70.54428100585938 C 137.2902984619141 70.93453979492188 137.4131469726562 71.33029937744141 137.6885833740234 71.60317993164062 L 138.8202362060547 72.71693420410156 L 137.6885833740234 73.8377685546875 C 137.4131469726562 74.11051940917969 137.2903900146484 74.50640869140625 137.3600463867188 74.89669036865234 L 137.6505737304688 76.49417877197266 L 136.1059417724609 76.70326995849609 C 135.7292633056641 76.75424194335938 135.4073181152344 76.99934387207031 135.2446746826172 77.35893249511719 L 134.5849151611328 78.83022308349609 M 130.7894287109375 65.9271240234375 C 130.8985748291016 65.9271240234375 131.0072479248047 65.95627593994141 131.1036987304688 66.01142120361328 L 132.4702453613281 66.79372406005859 C 132.6022796630859 66.86932373046875 132.7692260742188 66.86930084228516 132.9012298583984 66.79373168945312 L 134.2677001953125 66.01145172119141 C 134.3641204833984 65.95627593994141 134.4727935791016 65.9271240234375 134.5819549560547 65.9271240234375 C 134.8339080810547 65.9271240234375 135.0660552978516 66.08026123046875 135.1733856201172 66.31726837158203 L 135.8396301269531 67.79093170166016 C 135.9061279296875 67.93838500976562 136.037353515625 68.03877258300781 136.190673828125 68.05956268310547 L 137.7352905273438 68.26860046386719 C 137.9100952148438 68.29228973388672 138.0649108886719 68.3857421875 138.1712799072266 68.53174591064453 C 138.2820281982422 68.68376159667969 138.3263244628906 68.87850189208984 138.2927856445312 69.06602478027344 L 138.0062561035156 70.66928100585938 C 137.9773559570312 70.83119201660156 138.0280151367188 70.99517059326172 138.1417388916016 71.10791015625 L 139.2733306884766 72.22872161865234 C 139.4039611816406 72.35813903808594 139.4759216308594 72.53277587890625 139.4759216308594 72.72044372558594 C 139.4759216308594 72.90813446044922 139.4039916992188 73.08279418945312 139.2733459472656 73.21223449707031 L 138.1416168212891 74.33309936523438 C 138.0278625488281 74.44579315185547 137.9771881103516 74.60976409912109 138.0060882568359 74.77171325683594 L 138.2926940917969 76.37493896484375 C 138.3262176513672 76.56242370605469 138.2819213867188 76.75714874267578 138.1711730957031 76.90919494628906 C 138.0647888183594 77.05522918701172 137.9099426269531 77.14870452880859 137.7351531982422 77.17237091064453 L 136.1905364990234 77.38142395019531 C 136.0374298095703 77.40208435058594 135.9062194824219 77.50247192382812 135.8394927978516 77.64994049072266 L 135.1733093261719 79.12338256835938 C 135.0660095214844 79.36044311523438 134.8338317871094 79.51359558105469 134.581787109375 79.51359558105469 C 134.4727020263672 79.51359558105469 134.3640441894531 79.48444366455078 134.2675933837891 79.42928314208984 L 132.9012298583984 78.64699554443359 C 132.7691345214844 78.57129669189453 132.6019592285156 78.57144165039062 132.4702606201172 78.64686584472656 L 131.1037292480469 79.42913055419922 C 131.0072937011719 79.48429870605469 130.8986053466797 79.51346588134766 130.7894287109375 79.51346588134766 C 130.5373840332031 79.51346588134766 130.3052368164062 79.36030578613281 130.1980438232422 79.12328338623047 L 129.5317230224609 77.64979553222656 C 129.4651336669922 77.50234985351562 129.3338928222656 77.40193939208984 129.1806335449219 77.38114929199219 L 127.6360321044922 77.17210388183594 C 127.4613037109375 77.14842987060547 127.3064727783203 77.05499267578125 127.2001037597656 76.90900421142578 C 127.0893096923828 76.75697326660156 127.0449981689453 76.56222534179688 127.0784912109375 76.37469482421875 L 127.3650207519531 74.77142333984375 C 127.3939666748047 74.60953521728516 127.3433074951172 74.44557189941406 127.2295227050781 74.33282470703125 L 126.0978240966797 73.21197509765625 C 125.9671630859375 73.08257293701172 125.8952026367188 72.90795135498047 125.8952026367188 72.72029113769531 C 125.8951721191406 72.53260040283203 125.9671325683594 72.35794067382812 126.0978088378906 72.22850036621094 L 127.2295227050781 71.10764312744141 C 127.3433074951172 70.99489593505859 127.3939666748047 70.83092498779297 127.3650207519531 70.66904449462891 L 127.0784912109375 69.0657958984375 C 127.0450286865234 68.87818908691406 127.0894012451172 68.68341064453125 127.2002410888672 68.53136444091797 C 127.306640625 68.38539886474609 127.4614562988281 68.29201507568359 127.6361694335938 68.26837158203125 L 129.1808319091797 68.05931091308594 C 129.3338775634766 68.03865051269531 129.4651031494141 67.93826293945312 129.5318908691406 67.79074096679688 L 130.1980438232422 66.31732177734375 C 130.3053131103516 66.08026885986328 130.5374450683594 65.9271240234375 130.7894287109375 65.9271240234375 Z M 137.5297241210938 69.02644348144531 L 136.0928497314453 68.8367919921875 C 135.6814117431641 68.78102111816406 135.3304138183594 68.51427459716797 135.153564453125 68.12319946289062 L 134.5328521728516 66.75025939941406 L 133.2681121826172 67.4794921875 C 133.0899810791016 67.58148956298828 132.8886566162109 67.63532257080078 132.6856384277344 67.63532257080078 C 132.4826202392578 67.63532257080078 132.28125 67.58148956298828 132.1033172607422 67.47965240478516 L 130.8367919921875 66.75447845458984 L 130.2180328369141 68.1229248046875 C 130.0410919189453 68.51417541503906 129.6900939941406 68.78092956542969 129.279052734375 68.83653259277344 L 127.8380889892578 69.03155517578125 L 128.1098937988281 70.52611541748047 C 128.1854858398438 70.94904327392578 128.0522155761719 71.37802886962891 127.7534484863281 71.67397308349609 L 126.6936798095703 72.72366333007812 L 127.7532196044922 73.76638031005859 C 128.0522155761719 74.06256103515625 128.1854858398438 74.49153900146484 128.1099395751953 74.91413879394531 L 127.841796875 76.41439819335938 L 129.2787322998047 76.60400390625 C 129.6902313232422 76.65966033935547 130.0412292480469 76.92636871337891 130.2180023193359 77.31751251220703 L 130.8388671875 78.69040679931641 L 132.1032867431641 77.96110534667969 C 132.2815093994141 77.85908508300781 132.4828643798828 77.80524444580078 132.6858825683594 77.80524444580078 C 132.8891296386719 77.80524444580078 133.0905303955078 77.85918426513672 133.2683410644531 77.96123504638672 L 134.538818359375 78.68860626220703 L 135.1534271240234 77.31800842285156 C 135.3304901123047 76.92654418945312 135.6815032958984 76.6597900390625 136.092529296875 76.60417175292969 L 137.5334625244141 76.40911865234375 L 137.2616577148438 74.91458129882812 C 137.1861572265625 74.49153900146484 137.3194732666016 74.06255340576172 137.6182250976562 73.76670837402344 L 138.6779174804688 72.71715545654297 L 137.6184387207031 71.67445373535156 C 137.3193969726562 71.37818908691406 137.1860809326172 70.94921112060547 137.2616119384766 70.52669525146484 L 137.5297241210938 69.02644348144531 Z" stroke="none" fill="#418fde"/>
    </g>
    <g id="Path_106066" data-name="Path 106066" transform="translate(-177.25 -147.197)" fill="#418fde">
      <path d="M 226.3183441162109 242.5269622802734 L 226.2683410644531 242.5269622802734 L 225.9198608398438 242.5269622802734 L 225.8931427001953 242.5269622802734 L 225.8782958984375 242.5047302246094 L 224.6217498779297 240.6246337890625 L 224.6217498779297 242.4769592285156 L 224.6217498779297 242.5269622802734 L 224.5717468261719 242.5269622802734 L 224.2460021972656 242.5269622802734 L 224.1959991455078 242.5269622802734 L 224.1959991455078 242.4769592285156 L 224.1959991455078 239.9100341796875 L 224.1959991455078 239.8600311279297 L 224.2460021972656 239.8600311279297 L 224.5943908691406 239.8600311279297 L 224.6211090087891 239.8600311279297 L 224.6359558105469 239.8822326660156 L 225.8926544189453 241.7607269287109 L 225.8926544189453 239.9100341796875 L 225.8926544189453 239.8600311279297 L 225.9426574707031 239.8600311279297 L 226.2683410644531 239.8600311279297 L 226.3183441162109 239.8600311279297 L 226.3183441162109 239.9100341796875 L 226.3183441162109 242.4769592285156 L 226.3183441162109 242.5269622802734 Z" stroke="none"/>
      <path d="M 224.2460021972656 239.9100341796875 L 224.2460021972656 242.4769592285156 L 224.5717468261719 242.4769592285156 L 224.5717468261719 240.4598388671875 L 225.9198608398438 242.4769592285156 L 226.2683410644531 242.4769592285156 L 226.2683410644531 239.9100341796875 L 225.9426574707031 239.9100341796875 L 225.9426574707031 241.9253845214844 L 224.5943908691406 239.9100341796875 L 224.2460021972656 239.9100341796875 M 224.14599609375 239.8100433349609 L 224.6477966308594 239.8100433349609 L 225.8426666259766 241.5960693359375 L 225.8426666259766 239.8100433349609 L 226.3683471679688 239.8100433349609 L 226.3683471679688 242.5769500732422 L 225.8664245605469 242.5769500732422 L 224.6717529296875 240.7894287109375 L 224.6717529296875 242.5769500732422 L 224.14599609375 242.5769500732422 L 224.14599609375 239.8100433349609 Z" stroke="none" fill="#418fde"/>
    </g>
    <g id="Path_106067" data-name="Path 106067" transform="translate(-256.064 -147.197)" fill="#418fde">
      <path d="M 307.4264831542969 242.5269622802734 L 307.3764953613281 242.5269622802734 L 305.4610290527344 242.5269622802734 L 305.4110412597656 242.5269622802734 L 305.4110412597656 242.4769592285156 L 305.4110412597656 239.9100341796875 L 305.4110412597656 239.8600311279297 L 305.4610290527344 239.8600311279297 L 307.3169555664062 239.8600311279297 L 307.366943359375 239.8600311279297 L 307.366943359375 239.9100341796875 L 307.366943359375 240.2129516601562 L 307.366943359375 240.262939453125 L 307.3169555664062 240.262939453125 L 305.8506774902344 240.262939453125 L 305.8506774902344 240.9491424560547 L 307.2207336425781 240.9491424560547 L 307.2707214355469 240.9491424560547 L 307.2707214355469 240.9991455078125 L 307.2707214355469 241.3003234863281 L 307.2707214355469 241.3503265380859 L 307.2207336425781 241.3503265380859 L 305.8506774902344 241.3503265380859 L 305.8506774902344 242.1240081787109 L 307.3764953613281 242.1240081787109 L 307.4264831542969 242.1240081787109 L 307.4264831542969 242.1740112304688 L 307.4264831542969 242.4769592285156 L 307.4264831542969 242.5269622802734 Z" stroke="none"/>
      <path d="M 305.4610290527344 239.9100341796875 L 305.4610290527344 242.4769592285156 L 307.3764953613281 242.4769592285156 L 307.3764953613281 242.1740112304688 L 305.8006896972656 242.1740112304688 L 305.8006896972656 241.3003234863281 L 307.2207336425781 241.3003234863281 L 307.2207336425781 240.9991455078125 L 305.8006896972656 240.9991455078125 L 305.8006896972656 240.2129516601562 L 307.3169555664062 240.2129516601562 L 307.3169555664062 239.9100341796875 L 305.4610290527344 239.9100341796875 M 305.3610229492188 239.8100433349609 L 307.4169616699219 239.8100433349609 L 307.4169616699219 240.3129425048828 L 305.9006958007812 240.3129425048828 L 305.9006958007812 240.8991394042969 L 307.3207397460938 240.8991394042969 L 307.3207397460938 241.4003295898438 L 305.9006958007812 241.4003295898438 L 305.9006958007812 242.0740051269531 L 307.4765014648438 242.0740051269531 L 307.4765014648438 242.5769500732422 L 305.3610229492188 242.5769500732422 L 305.3610229492188 239.8100433349609 Z" stroke="none" fill="#418fde"/>
    </g>
    <g id="Path_106068" data-name="Path 106068" transform="translate(-320.973 -147.197)" fill="#418fde">
      <path d="M 375.2991333007812 242.5269622802734 L 375.2610168457031 242.5269622802734 L 374.9335021972656 242.5269622802734 L 374.8954467773438 242.5269622802734 L 374.8853149414062 242.4902801513672 L 374.3443908691406 240.5344696044922 C 374.3331909179688 240.4943695068359 374.3230895996094 240.4579315185547 374.3140869140625 240.4252014160156 C 374.3040466308594 240.4645080566406 374.2942810058594 240.5010681152344 374.2848205566406 240.5346832275391 L 373.7402038574219 242.4903717041016 L 373.7300415039062 242.5269622802734 L 373.6920471191406 242.5269622802734 L 373.345458984375 242.5269622802734 L 373.3070068359375 242.5269622802734 L 373.297119140625 242.4897766113281 L 372.6161193847656 239.9228515625 L 372.5994567871094 239.8600311279297 L 372.6644592285156 239.8600311279297 L 373.0127868652344 239.8600311279297 L 373.0525207519531 239.8600311279297 L 373.0614929199219 239.8987426757812 L 373.4519348144531 241.5814514160156 C 373.4755554199219 241.6806945800781 373.4974975585938 241.7802886962891 373.517578125 241.8792877197266 C 373.5508422851562 241.7413787841797 373.5711975097656 241.6592559814453 373.579345703125 241.6300659179688 L 374.06787109375 239.8964691162109 L 374.078125 239.8600311279297 L 374.1159973144531 239.8600311279297 L 374.5255737304688 239.8600311279297 L 374.5633850097656 239.8600311279297 L 374.5736999511719 239.8964233398438 L 374.9413757324219 241.1956024169922 C 375.0063171386719 241.4222869873047 375.0591125488281 241.6422882080078 375.0990905761719 241.8525238037109 C 375.1209411621094 241.7568359375 375.1454467773438 241.6548461914062 375.1723937988281 241.5472869873047 L 375.5748901367188 239.8981781005859 L 375.5841979980469 239.8600311279297 L 375.6234436035156 239.8600311279297 L 375.9649047851562 239.8600311279297 L 376.0304565429688 239.8600311279297 L 376.0131225585938 239.9232635498047 L 375.3092346191406 242.4901733398438 L 375.2991333007812 242.5269622802734 Z" stroke="none"/>
      <path d="M 372.6644592285156 239.9100341796875 L 373.345458984375 242.4769592285156 L 373.6920471191406 242.4769592285156 L 374.2366943359375 240.5211486816406 C 374.2600402832031 240.4382019042969 374.28515625 240.3378295898438 374.3119812011719 240.219970703125 C 374.3201599121094 240.2573547363281 374.346923828125 240.3576354980469 374.392578125 240.5211486816406 L 374.9335021972656 242.4769592285156 L 375.2610168457031 242.4769592285156 L 375.9649047851562 239.9100341796875 L 375.6234436035156 239.9100341796875 L 375.2208862304688 241.5594482421875 C 375.168212890625 241.7695922851562 375.1255798339844 241.9557495117188 375.0929565429688 242.1179809570312 C 375.0519409179688 241.8342895507812 374.9855651855469 241.5314331054688 374.8932800292969 241.209228515625 L 374.5255737304688 239.9100341796875 L 374.1159973144531 239.9100341796875 L 373.6275024414062 241.6435241699219 C 373.6157531738281 241.685546875 373.5772094726562 241.8436889648438 373.5118103027344 242.1179809570312 C 373.4813842773438 241.9440307617188 373.4451599121094 241.7689514160156 373.4032287597656 241.5927429199219 L 373.0127868652344 239.9100341796875 L 372.6644592285156 239.9100341796875 M 372.5344543457031 239.8100433349609 L 373.0922241210938 239.8100433349609 L 373.5006408691406 241.5701446533203 C 373.5074768066406 241.5988922119141 373.5141906738281 241.6276550292969 373.5207214355469 241.6564331054688 C 373.5252990722656 241.6385498046875 373.5287780761719 241.6252899169922 373.5311889648438 241.6165924072266 L 374.040283203125 239.8100433349609 L 374.6011962890625 239.8100433349609 L 374.989501953125 241.1819915771484 C 375.0324401855469 241.3318786621094 375.0700988769531 241.4789123535156 375.102294921875 241.6222076416016 C 375.1093139648438 241.5936126708984 375.1165161132812 241.5645751953125 375.1239013671875 241.5351409912109 L 375.544921875 239.8100433349609 L 376.0960083007812 239.8100433349609 L 375.3372802734375 242.5769500732422 L 374.8573913574219 242.5769500732422 L 374.3145751953125 240.6142578125 L 373.7680053710938 242.5769500732422 L 373.2685241699219 242.5769500732422 L 372.5344543457031 239.8100433349609 Z" stroke="none" fill="#418fde"/>
    </g>
  </g>
</svg>
