<svg xmlns="http://www.w3.org/2000/svg" width="27.753" height="26.182" viewBox="0 0 27.753 26.182">
  <g id="Group_35685" data-name="Group 35685" transform="translate(-1004.8 -171)">
    <g id="Group_34889" data-name="Group 34889" transform="translate(1002.791 171.791)">
      <g id="noun-new-1693260" transform="translate(2.209 2.209)">
        <g id="Path_106065" data-name="Path 106065" transform="translate(-125.995 -66.027)" fill="#418fde">
          <path d="M 140.7371215820312 89.10971832275391 C 140.5622711181641 89.10971832275391 140.3880310058594 89.06293487548828 140.2332458496094 88.97442626953125 L 137.887451171875 87.63137054443359 C 137.7632904052734 87.56024932861328 137.6230316162109 87.52265930175781 137.4818420410156 87.52265930175781 C 137.3404846191406 87.52265930175781 137.2002410888672 87.5601806640625 137.0762939453125 87.63115692138672 L 134.730224609375 88.97416687011719 C 134.5754089355469 89.06270599365234 134.4011383056641 89.10950469970703 134.2262115478516 89.10950469970703 C 133.8215637207031 89.10950469970703 133.4486541748047 88.86310577392578 133.2761840820312 88.48178100585938 L 132.1321716308594 85.95201873779297 C 132.0076904296875 85.67623901367188 131.7615661621094 85.48831939697266 131.4737548828125 85.44928741455078 L 128.8218841552734 85.09040069580078 C 128.5414123535156 85.05239868164062 128.2927703857422 84.90220642089844 128.1217498779297 84.66748046875 C 127.9430236816406 84.42216491699219 127.8715438842773 84.10779571533203 127.9256591796875 83.80497741699219 L 128.4176025390625 81.05240631103516 C 128.4714050292969 80.75125885009766 128.3768920898438 80.44599914550781 128.1648101806641 80.23584747314453 L 126.2218399047852 78.31151580810547 C 126.0112152099609 78.1029052734375 125.8952178955078 77.82119750976562 125.8952102661133 77.51828765869141 C 125.8951950073242 77.21532440185547 126.0111846923828 76.93357086181641 126.2218246459961 76.72490692138672 L 128.1648101806641 74.800537109375 C 128.3768920898438 74.59042358398438 128.4713897705078 74.28516387939453 128.4176025390625 73.98398590087891 L 127.9256591796875 71.23146057128906 C 127.8715972900391 70.92853546142578 127.9431686401367 70.61410522460938 128.1219940185547 70.36876678466797 C 128.2930450439453 70.13411712646484 128.5416717529297 69.98400115966797 128.8220825195312 69.94606781005859 L 131.4740600585938 69.58712005615234 C 131.761474609375 69.54833984375 132.0075836181641 69.36046600341797 132.1324615478516 69.08457946777344 L 133.2761840820312 66.55488586425781 C 133.4487762451172 66.17353057861328 133.8216857910156 65.9271240234375 134.2262115478516 65.9271240234375 C 134.4011383056641 65.9271240234375 134.5754089355469 65.97390747070312 134.7301788330078 66.06240081787109 L 137.0762786865234 67.40547943115234 C 137.2003936767578 67.47655487060547 137.3406219482422 67.51412963867188 137.4818420410156 67.51412963867188 C 137.623046875 67.51412963867188 137.7633056640625 67.47655487060547 137.887451171875 67.40548706054688 L 140.2334747314453 66.06242370605469 C 140.38818359375 65.97390747070312 140.5624237060547 65.9271240234375 140.7373657226562 65.9271240234375 C 141.141845703125 65.9271240234375 141.5147857666016 66.17351531982422 141.6874694824219 66.55484008789062 L 142.8313140869141 69.08485412597656 C 142.9556732177734 69.36062622070312 143.2017974853516 69.54851531982422 143.4897003173828 69.58755493164062 L 146.1415710449219 69.94646453857422 C 146.4221038818359 69.98446655273438 146.6707763671875 70.13466644287109 146.8417816162109 70.369384765625 C 147.0204772949219 70.61467742919922 147.0919189453125 70.92903900146484 147.0377655029297 71.23186492919922 L 146.5458526611328 73.98442077636719 C 146.4920806884766 74.28557586669922 146.5865631103516 74.59085083007812 146.798583984375 74.80101013183594 L 148.7413787841797 76.72528839111328 C 148.9519653320312 76.93392944335938 149.0679473876953 77.21564483642578 149.0679626464844 77.51857757568359 C 149.0679626464844 77.82154083251953 148.9519805908203 78.10330963134766 148.7413940429688 78.31197357177734 L 146.7983703613281 80.23633575439453 C 146.5863037109375 80.44639587402344 146.4917907714844 80.75164031982422 146.5455627441406 81.0528564453125 L 147.0375823974609 83.805419921875 C 147.0917358398438 84.10817718505859 147.0202941894531 84.42253875732422 146.841552734375 84.66787719726562 C 146.6705322265625 84.90263366699219 146.421875 85.05284881591797 146.1413726806641 85.09083557128906 L 143.4894561767578 85.44973754882812 C 143.2020263671875 85.48854827880859 142.9559173583984 85.67639923095703 142.8310699462891 85.95223999023438 L 141.6873016357422 88.48194885253906 C 141.5147247314453 88.86331939697266 141.1417541503906 89.10971832275391 140.7371215820312 89.10971832275391 Z M 129.081787109375 83.92179870605469 L 131.6231384277344 84.25714111328125 C 132.3047637939453 84.34933471679688 132.8865661621094 84.79174041748047 133.1797943115234 85.44058990478516 L 134.2783203125 87.8697509765625 L 136.5176849365234 86.57808685302734 C 136.8126373291016 86.40926361083984 137.1460418701172 86.32011413574219 137.4821166992188 86.32011413574219 C 137.818603515625 86.32011413574219 138.1520538330078 86.40943908691406 138.4464416503906 86.57843017578125 L 140.6963653564453 87.86654663085938 L 141.7839202880859 85.44125366210938 C 142.0775909423828 84.79199981689453 142.659423828125 84.34954833984375 143.3404388427734 84.25738525390625 L 145.8886413574219 83.91248321533203 L 145.4085540771484 81.27275848388672 C 145.2831573486328 80.56985473632812 145.5045166015625 79.85709381103516 146.0006408691406 79.36580657958984 L 147.8715667724609 77.51275634765625 L 146.0008544921875 75.67165374755859 C 145.5043792724609 75.1798095703125 145.2830200195312 74.46705627441406 145.4085083007812 73.76480865478516 L 145.8820648193359 71.11525726318359 L 143.3407745361328 70.77985382080078 C 142.6592407226562 70.68745422363281 142.0774230957031 70.2449951171875 141.7840423583984 69.59623718261719 L 140.6858215332031 67.16704559326172 L 138.4459533691406 68.45851898193359 C 138.151123046875 68.62733459472656 137.8177795410156 68.71648406982422 137.481689453125 68.71648406982422 C 137.1455841064453 68.71648406982422 136.8121948242188 68.62733459472656 136.5175323486328 68.45867919921875 L 134.274658203125 67.17448425292969 L 133.1798706054688 69.59577941894531 C 132.8863220214844 70.24485015869141 132.3045043945312 70.68732452392578 131.6234588623047 70.7794189453125 L 129.0752410888672 71.12431335449219 L 129.5552978515625 73.76406860351562 C 129.6808776855469 74.46678924560547 129.4596099853516 75.17953491210938 128.9634399414062 75.67099761962891 L 127.0924072265625 77.52426910400391 L 128.9632110595703 79.36538696289062 C 129.4595947265625 79.85711669921875 129.6808624267578 80.56985473632812 129.5553436279297 81.27219390869141 L 129.081787109375 83.92179870605469 Z" stroke="none"/>
          <path d="M 134.2262115478516 66.02711486816406 C 133.8718414306641 66.02711486816406 133.5304107666016 66.23569488525391 133.3672943115234 66.59608459472656 L 132.2235717773438 69.12581634521484 C 132.0851135253906 69.43169403076172 131.8078918457031 69.64297485351562 131.4874725341797 69.68621826171875 L 128.8354797363281 70.045166015625 C 128.2946929931641 70.11831665039062 127.9239349365234 70.65261077880859 128.0240936279297 71.2138671875 L 128.5160369873047 73.96640014648438 C 128.5753631591797 74.29850769042969 128.4695587158203 74.63939666748047 128.2351837158203 74.87158966064453 L 126.2922058105469 76.79594421386719 C 125.8962097167969 77.18824005126953 125.8962097167969 77.84824371337891 126.2922058105469 78.24047088623047 L 128.2351837158203 80.16481018066406 C 128.4695587158203 80.39702606201172 128.5753631591797 80.73793792724609 128.5160369873047 81.06999969482422 L 128.0240936279297 83.82257080078125 C 127.9237823486328 84.38396453857422 128.2946929931641 84.91806030273438 128.8352966308594 84.99129486083984 L 131.4871978759766 85.35019683837891 C 131.8077392578125 85.39366912841797 132.0851135253906 85.60469055175781 132.2232971191406 85.91080474853516 L 133.3672943115234 88.44056701660156 C 133.6008605957031 88.95696258544922 134.2009887695312 89.16166687011719 134.6805419921875 88.88737487792969 L 137.0265960693359 87.54436492919922 C 137.31005859375 87.382080078125 137.6535186767578 87.38211822509766 137.9371337890625 87.54458618164062 L 140.2828826904297 88.88761901855469 C 140.7627258300781 89.16196441650391 141.3624877929688 88.95709228515625 141.59619140625 88.44075012207031 L 142.7399749755859 85.9110107421875 C 142.8784027099609 85.60514068603516 143.1555633544922 85.3939208984375 143.4760437011719 85.35063934326172 L 146.1279449462891 84.99173736572266 C 146.6687316894531 84.91849517822266 147.0395202636719 84.38421630859375 146.9391479492188 83.82302093505859 L 146.4471130371094 81.07042694091797 C 146.3878479003906 80.73834991455078 146.4936218261719 80.3974609375 146.7279968261719 80.16529083251953 L 148.6710052490234 78.24094390869141 C 149.0669403076172 77.84862518310547 149.0669403076172 77.1885986328125 148.6710052490234 76.79634094238281 L 146.7281799316406 74.87202453613281 C 146.493896484375 74.63980865478516 146.3881225585938 74.29885864257812 146.4474182128906 73.96682739257812 L 146.9393310546875 71.21426391601562 C 147.0397033691406 70.65288543701172 146.6689453125 70.11882019042969 146.1281585693359 70.04557037353516 L 143.4762573242188 69.6866455078125 C 143.1557159423828 69.6431884765625 142.8782501220703 69.43216705322266 142.7401885986328 69.12606048583984 L 141.5963745117188 66.59608459472656 C 141.3624420166016 66.07949066162109 140.7620086669922 65.87525939941406 140.2831573486328 66.14920806884766 L 137.9371337890625 67.49226379394531 C 137.6537628173828 67.65451812744141 137.310302734375 67.65474700927734 137.0265960693359 67.49226379394531 L 134.6805419921875 66.14920806884766 C 134.5356597900391 66.06636810302734 134.3798370361328 66.02711486816406 134.2262115478516 66.02711486816406 M 140.7424621582031 88.00817108154297 L 138.3966674804688 86.6651611328125 C 138.1170654296875 86.50465393066406 137.80078125 86.42010498046875 137.4821166992188 86.42010498046875 C 137.1633148193359 86.42010498046875 136.8472747802734 86.50465393066406 136.5676422119141 86.66471099853516 L 134.2326812744141 88.01150512695312 L 133.0886535644531 85.48176574707031 C 132.8097534179688 84.86460113525391 132.2568359375 84.44376373291016 131.6100616455078 84.35627746582031 L 128.9649353027344 84.00724792480469 L 129.4569091796875 81.25460815429688 C 129.57666015625 80.58455657958984 129.3656921386719 79.90485382080078 128.89306640625 79.43666076660156 L 126.9500732421875 77.52449798583984 L 128.89306640625 75.59994506835938 C 129.3660278320312 75.13147735595703 129.57666015625 74.45203399658203 129.4569091796875 73.78195953369141 L 128.9581298828125 71.03924560546875 L 131.6100616455078 70.68032073974609 C 132.2568359375 70.59285736083984 132.8095092773438 70.17202758789062 133.0887451171875 69.55458068847656 L 134.2288665771484 67.03303527832031 L 136.5672149658203 68.37188720703125 C 136.8468780517578 68.53196716308594 137.1630096435547 68.61648559570312 137.481689453125 68.61648559570312 C 137.8002624511719 68.61648559570312 138.1164245605469 68.53196716308594 138.39599609375 68.37188720703125 L 140.7314758300781 67.02528381347656 L 141.8751678466797 69.55503845214844 C 142.1542510986328 70.17219543457031 142.7071380615234 70.59304046630859 143.3538513183594 70.68071746826172 L 145.9989166259766 71.02981567382812 L 145.5069427490234 73.78239440917969 C 145.3872222900391 74.45243835449219 145.5981292724609 75.13191986083984 146.0709991455078 75.60038757324219 L 148.0139007568359 77.51253509521484 L 146.0709991455078 79.43686676025391 C 145.5981292724609 79.90513610839844 145.3874053955078 80.58481597900391 145.5069427490234 81.25486755371094 L 146.0057525634766 83.99755096435547 L 143.3538513183594 84.35649108886719 C 142.7071380615234 84.44400024414062 142.1544036865234 84.86481475830078 141.8751678466797 85.482177734375 L 140.7424621582031 88.00817108154297 M 134.2262115478516 65.82711791992188 C 134.4185028076172 65.82711791992188 134.6099395751953 65.87845611572266 134.7798004150391 65.9755859375 L 137.1259613037109 67.31869506835938 C 137.3440093994141 67.44357299804688 137.6196899414062 67.44355773925781 137.8377685546875 67.31869506835938 L 140.1837921142578 65.97563934326172 C 140.3536224365234 65.87846374511719 140.5450439453125 65.82711791992188 140.7373657226562 65.82711791992188 C 141.1810150146484 65.82711791992188 141.5897216796875 66.09656524658203 141.778564453125 66.51358032226562 L 142.9224243164062 69.04367065429688 C 143.0325622558594 69.28787994384766 143.2496337890625 69.45408630371094 143.5031280517578 69.48845672607422 L 146.1549835205078 69.84737396240234 C 146.4627990722656 69.88906860351562 146.7354125976562 70.05355072021484 146.922607421875 70.31050872802734 C 147.1172637939453 70.57770538330078 147.1951293945312 70.91994476318359 147.1361999511719 71.24946594238281 L 146.6443023681641 74.00200653076172 C 146.5962829589844 74.27080535888672 146.6802825927734 74.54294586181641 146.8689727783203 74.72998809814453 L 148.8117370605469 76.65423583984375 C 149.0414428710938 76.88180541992188 149.1679382324219 77.18875885009766 149.16796875 77.51856994628906 C 149.16796875 77.84841918945312 149.0414733886719 78.15541839599609 148.811767578125 78.38301849365234 L 146.8687438964844 80.30738830566406 C 146.6800384521484 80.49430847167969 146.5960235595703 80.76642608642578 146.6440124511719 81.03528594970703 L 147.1360168457031 83.78782653808594 C 147.1949462890625 84.11726379394531 147.1170806884766 84.45951080322266 146.9223937988281 84.72676086425781 C 146.7351531982422 84.98375701904297 146.4625549316406 85.14824676513672 146.15478515625 85.18992614746094 L 143.5028686523438 85.548828125 C 143.2497711181641 85.5830078125 143.0327301025391 85.74922943115234 142.9221801757812 85.99346923828125 L 141.7784271240234 88.52314758300781 C 141.5896606445312 88.94024658203125 141.1809234619141 89.209716796875 140.7371215820312 89.209716796875 C 140.5448913574219 89.209716796875 140.3534851074219 89.15837860107422 140.1836090087891 89.06124114990234 L 137.8377685546875 87.71815490722656 C 137.6194610595703 87.59310913085938 137.3435516357422 87.5933837890625 137.1259765625 87.71792602539062 L 134.7798919677734 89.06094360351562 C 134.6099700927734 89.15814971923828 134.4185333251953 89.20951080322266 134.2262115478516 89.20951080322266 C 133.7823638916016 89.20951080322266 133.3736877441406 88.94002532958984 133.1850738525391 88.52298736572266 L 132.0410614013672 85.99321746826172 C 131.9308319091797 85.74900054931641 131.7137451171875 85.58274841308594 131.4603118896484 85.54838562011719 L 128.8084716796875 85.18948364257812 C 128.500732421875 85.14779663085938 128.2281494140625 84.98331451416016 128.0409240722656 84.72635650634766 C 127.8462219238281 84.45912933349609 127.7683410644531 84.11688995361328 127.8272247314453 83.78738403320312 L 128.3191528320312 81.03480529785156 C 128.3671722412109 80.76602935791016 128.2831726074219 80.493896484375 128.0944213867188 80.30687713623047 L 126.1514739990234 78.382568359375 C 125.9217529296875 78.15503692626953 125.7952117919922 77.84809875488281 125.7952117919922 77.51828765869141 C 125.7951965332031 77.18844604492188 125.9217071533203 76.88145446777344 126.1514587402344 76.65385437011719 L 128.0944519042969 74.72948455810547 C 128.2831726074219 74.54251861572266 128.3671722412109 74.27040100097656 128.3191528320312 74.00156402587891 L 127.8272247314453 71.24905395507812 C 127.7683868408203 70.91941833496094 127.8463897705078 70.57711791992188 128.0411834716797 70.30986785888672 C 128.2284393310547 70.05298614501953 128.5009918212891 69.88858795166016 128.8086700439453 69.84696960449219 L 131.4606323242188 69.48802947998047 C 131.7137298583984 69.45386505126953 131.9307861328125 69.28763580322266 132.0413665771484 69.04335021972656 L 133.18505859375 66.51369476318359 C 133.3738403320312 66.09658813476562 133.7825012207031 65.82711791992188 134.2262115478516 65.82711791992188 Z M 145.7651977539062 71.20070648193359 L 143.3276824951172 70.87899780273438 C 142.6114501953125 70.78189849853516 142.0005798339844 70.31779479980469 141.6929321289062 69.637451171875 L 140.6401672363281 67.30879974365234 L 138.4958953857422 68.54515075683594 C 138.1857147216797 68.72277069091797 137.8351745605469 68.81649017333984 137.481689453125 68.81649017333984 C 137.1281890869141 68.81649017333984 136.7776184082031 68.72277069091797 136.4678649902344 68.54546356201172 L 134.3204498291016 67.31593322753906 L 133.2709808349609 69.63697814941406 C 132.9631500244141 70.31765747070312 132.3522644042969 70.78177642822266 131.6368560791016 70.87851715087891 L 129.1923370361328 71.20936584472656 L 129.6536712646484 73.74617767333984 C 129.7850952148438 74.48155975341797 129.5533447265625 75.22744750976562 129.0338134765625 75.74203491210938 L 127.2347412109375 77.52403259277344 L 129.0333557128906 79.29410552978516 C 129.5533294677734 79.80921936035156 129.7850799560547 80.55509948730469 129.6537933349609 81.289794921875 L 129.1986541748047 83.83635711669922 L 131.6362152099609 84.15799713134766 C 132.3525543212891 84.25489807128906 132.9634094238281 84.71894073486328 133.2709045410156 85.39940643310547 L 134.3239593505859 87.72797393798828 L 136.4677124023438 86.491455078125 C 136.778076171875 86.31382751464844 137.1286468505859 86.22010803222656 137.4821166992188 86.22010803222656 C 137.8360290527344 86.22010803222656 138.1867065429688 86.31402587890625 138.4962310791016 86.49170684814453 L 140.6502838134766 87.72493743896484 L 141.6926727294922 85.40034484863281 C 142.0007629394531 84.71920013427734 142.6116333007812 84.25509643554688 143.3270263671875 84.15829467773438 L 145.7715301513672 83.82743072509766 L 145.3101806640625 81.29065704345703 C 145.1789398193359 80.5550537109375 145.4107971191406 79.80917358398438 145.9302673339844 79.29475402832031 L 147.7292327880859 77.51298522949219 L 145.9307098388672 75.74292755126953 C 145.41064453125 75.22770690917969 145.1788024902344 74.48181915283203 145.3100738525391 73.74721527099609 L 145.7651977539062 71.20070648193359 Z" stroke="none" fill="#418fde"/>
        </g>
        <g id="Group_34885" data-name="Group 34885" transform="translate(4.623 9.288)">
          <g id="Path_106066" data-name="Path 106066" transform="translate(-224.246 -239.91)" fill="#418fde">
            <path d="M 227.8180694580078 244.4170684814453 L 227.7180633544922 244.4170684814453 L 227.1198120117188 244.4170684814453 L 227.0663757324219 244.4170684814453 L 227.0366821289062 244.3726348876953 L 224.9052581787109 241.1835784912109 L 224.9052581787109 244.3170623779297 L 224.9052581787109 244.4170684814453 L 224.8052520751953 244.4170684814453 L 224.2460021972656 244.4170684814453 L 224.1460113525391 244.4170684814453 L 224.1460113525391 244.3170623779297 L 224.1460113525391 239.9100341796875 L 224.1460113525391 239.8100433349609 L 224.2460021972656 239.8100433349609 L 224.8441619873047 239.8100433349609 L 224.8975830078125 239.8100433349609 L 224.9272918701172 239.8544311523438 L 227.0588989257812 243.0407867431641 L 227.0588989257812 239.9100341796875 L 227.0588989257812 239.8100433349609 L 227.1589050292969 239.8100433349609 L 227.7180633544922 239.8100433349609 L 227.8180694580078 239.8100433349609 L 227.8180694580078 239.9100341796875 L 227.8180694580078 244.3170623779297 L 227.8180694580078 244.4170684814453 Z" stroke="none"/>
            <path d="M 224.2460021972656 239.9100341796875 L 224.2460021972656 244.3170623779297 L 224.8052520751953 244.3170623779297 L 224.8052520751953 240.8539886474609 L 227.1198120117188 244.3170623779297 L 227.7180633544922 244.3170623779297 L 227.7180633544922 239.9100341796875 L 227.1589050292969 239.9100341796875 L 227.1589050292969 243.3701171875 L 224.8441619873047 239.9100341796875 L 224.2460021972656 239.9100341796875 M 224.0460052490234 239.7100372314453 L 224.9509887695312 239.7100372314453 L 226.9589080810547 242.7114715576172 L 226.9589080810547 239.7100372314453 L 227.9180603027344 239.7100372314453 L 227.9180603027344 244.5170593261719 L 227.0129241943359 244.5170593261719 L 225.0052490234375 241.5131530761719 L 225.0052490234375 244.5170593261719 L 224.0460052490234 244.5170593261719 L 224.0460052490234 239.7100372314453 Z" stroke="none" fill="#418fde"/>
          </g>
          <g id="Path_106067" data-name="Path 106067" transform="translate(-301.339 -239.91)" fill="#418fde">
            <path d="M 308.8495788574219 244.4170684814453 L 308.7495727539062 244.4170684814453 L 305.4610290527344 244.4170684814453 L 305.3610229492188 244.4170684814453 L 305.3610229492188 244.3170623779297 L 305.3610229492188 239.9100341796875 L 305.3610229492188 239.8100433349609 L 305.4610290527344 239.8100433349609 L 308.6473999023438 239.8100433349609 L 308.7474060058594 239.8100433349609 L 308.7474060058594 239.9100341796875 L 308.7474060058594 240.4301147460938 L 308.7474060058594 240.5301208496094 L 308.6473999023438 240.5301208496094 L 306.1441650390625 240.5301208496094 L 306.1441650390625 241.6799011230469 L 308.482177734375 241.6799011230469 L 308.5821838378906 241.6799011230469 L 308.5821838378906 241.7798919677734 L 308.5821838378906 242.2969665527344 L 308.5821838378906 242.39697265625 L 308.482177734375 242.39697265625 L 306.1441650390625 242.39697265625 L 306.1441650390625 243.6969146728516 L 308.7495727539062 243.6969146728516 L 308.8495788574219 243.6969146728516 L 308.8495788574219 243.7969207763672 L 308.8495788574219 244.3170623779297 L 308.8495788574219 244.4170684814453 Z" stroke="none"/>
            <path d="M 305.4610290527344 239.9100341796875 L 305.4610290527344 244.3170623779297 L 308.7495727539062 244.3170623779297 L 308.7495727539062 243.7969207763672 L 306.0441589355469 243.7969207763672 L 306.0441589355469 242.2969665527344 L 308.482177734375 242.2969665527344 L 308.482177734375 241.7798919677734 L 306.0441589355469 241.7798919677734 L 306.0441589355469 240.4301147460938 L 308.6473999023438 240.4301147460938 L 308.6473999023438 239.9100341796875 L 305.4610290527344 239.9100341796875 M 305.2610168457031 239.7100372314453 L 308.8473815917969 239.7100372314453 L 308.8473815917969 240.6301116943359 L 306.244140625 240.6301116943359 L 306.244140625 241.5798950195312 L 308.6821899414062 241.5798950195312 L 308.6821899414062 242.4969635009766 L 306.244140625 242.4969635009766 L 306.244140625 243.5969085693359 L 308.9495849609375 243.5969085693359 L 308.9495849609375 244.5170593261719 L 305.2610168457031 244.5170593261719 L 305.2610168457031 239.7100372314453 Z" stroke="none" fill="#418fde"/>
          </g>
          <g id="Path_106068" data-name="Path 106068" transform="translate(-364.604 -239.91)" fill="#418fde">
            <path d="M 377.1986694335938 244.4170684814453 L 377.1224060058594 244.4170684814453 L 376.56005859375 244.4170684814453 L 376.4839477539062 244.4170684814453 L 376.4636840820312 244.3437194824219 L 375.5350341796875 240.9859008789062 C 375.5214538574219 240.9372711181641 375.5088195800781 240.8917541503906 375.4971008300781 240.8494110107422 C 375.4844665527344 240.8978271484375 375.4721069335938 240.9435272216797 375.4600219726562 240.9863586425781 L 374.5249938964844 244.3439025878906 L 374.5046081542969 244.4170684814453 L 374.4286499023438 244.4170684814453 L 373.8336791992188 244.4170684814453 L 373.7567443847656 244.4170684814453 L 373.7370300292969 244.3427124023438 L 372.5678100585938 239.9356689453125 L 372.5344848632812 239.8100433349609 L 372.6644592285156 239.8100433349609 L 373.2624816894531 239.8100433349609 L 373.3419189453125 239.8100433349609 L 373.3598937988281 239.8874359130859 L 374.0302734375 242.7763824462891 C 374.0658874511719 242.9261779785156 374.0993041992188 243.0763702392578 374.1302795410156 243.2259063720703 C 374.1785583496094 243.0261993408203 374.2086791992188 242.9052124023438 374.2214965820312 242.8592834472656 L 375.0602416992188 239.8829193115234 L 375.0807800292969 239.8100433349609 L 375.156494140625 239.8100433349609 L 375.8597412109375 239.8100433349609 L 375.9353637695312 239.8100433349609 L 375.9559631347656 239.8828125 L 376.5872497558594 242.1133117675781 C 376.6920776367188 242.4792938232422 376.7785034179688 242.835205078125 376.8455505371094 243.1766204833984 C 376.8792114257812 243.03125 376.9162292480469 242.8779449462891 376.9564514160156 242.7175140380859 L 377.6474609375 239.8863220214844 L 377.6660766601562 239.8100433349609 L 377.7445983886719 239.8100433349609 L 378.3308410644531 239.8100433349609 L 378.4619445800781 239.8100433349609 L 378.4272766113281 239.9364776611328 L 377.2188415527344 244.343505859375 L 377.1986694335938 244.4170684814453 Z" stroke="none"/>
            <path d="M 372.6644592285156 239.9100341796875 L 373.8336791992188 244.3170623779297 L 374.4286499023438 244.3170623779297 L 375.36376953125 240.9592437744141 C 375.4038696289062 240.8168487548828 375.4469604492188 240.64453125 375.4930419921875 240.442138671875 C 375.507080078125 240.50634765625 375.5530395507812 240.6785278320312 375.6314086914062 240.9592437744141 L 376.56005859375 244.3170623779297 L 377.1224060058594 244.3170623779297 L 378.3308410644531 239.9100341796875 L 377.7445983886719 239.9100341796875 L 377.0534362792969 242.7418212890625 C 376.9630432128906 243.1026000976562 376.8898620605469 243.4222412109375 376.8338317871094 243.7007598876953 C 376.7633972167969 243.2137145996094 376.6494750976562 242.6937561035156 376.4910278320312 242.1405487060547 L 375.8597412109375 239.9100341796875 L 375.156494140625 239.9100341796875 L 374.3178100585938 242.8861694335938 C 374.2976684570312 242.9583435058594 374.2315063476562 243.2298278808594 374.1192626953125 243.7007598876953 C 374.0670166015625 243.4021301269531 374.0048217773438 243.1015625 373.932861328125 242.7989807128906 L 373.2624816894531 239.9100341796875 L 372.6644592285156 239.9100341796875 M 372.4044799804688 239.7100372314453 L 373.42138671875 239.7100372314453 L 374.127685546875 242.7537689208984 C 374.1306762695312 242.7663879394531 374.1336669921875 242.779052734375 374.1366577148438 242.7916870117188 L 375.0050659179688 239.7100372314453 L 376.010986328125 239.7100372314453 L 376.6834716796875 242.0860748291016 C 376.7457885742188 242.3036346435547 376.8016662597656 242.5177459716797 376.8508911132812 242.7274780273438 C 376.8537292480469 242.7160949707031 376.8565673828125 242.7046661376953 376.8594360351562 242.6932220458984 L 377.5875549316406 239.7100372314453 L 378.5930480957031 239.7100372314453 L 377.2749633789062 244.5170593261719 L 376.4078674316406 244.5170593261719 L 375.4973754882812 241.2249298095703 L 374.58056640625 244.5170593261719 L 373.6798095703125 244.5170593261719 L 372.4044799804688 239.7100372314453 Z" stroke="none" fill="#418fde"/>
          </g>
        </g>
      </g>
    </g>
    <path id="Path_207" data-name="Path 207" d="M18.91,21.148v-.307a1.841,1.841,0,0,0-3.683,0v.307c0,.921-.614,2.455-1.228,2.455v1.228h1.841a1.228,1.228,0,0,0,2.455,0h1.841V23.6C19.524,23.6,18.91,22.376,18.91,21.148Z" transform="translate(1010.432 155.651)" fill="#13294b"/>
    <path id="Path_208" data-name="Path 208" d="M-2347.329-270.551a.432.432,0,0,1-.4-.338,4.51,4.51,0,0,0-3.444-3.192.4.4,0,0,1-.281-.18.454.454,0,0,1-.066-.342.44.44,0,0,1,.169-.3.392.392,0,0,1,.323-.069,5.415,5.415,0,0,1,4.109,3.836.493.493,0,0,1-.29.583Zm-2.344-.245a2.733,2.733,0,0,0-1.592-1.35.426.426,0,0,1-.265-.224.471.471,0,0,1-.024-.359.446.446,0,0,1,.211-.281.4.4,0,0,1,.338-.026,3.643,3.643,0,0,1,2.113,1.78.471.471,0,0,1-.174.614.37.37,0,0,1-.231.092A.448.448,0,0,1-2349.673-270.8Zm-5.18.184a.471.471,0,0,1-.174-.614,3.459,3.459,0,0,1,2.112-1.78.454.454,0,0,1,.55.307.493.493,0,0,1-.289.583,2.82,2.82,0,0,0-1.592,1.35.5.5,0,0,1-.405.215A.506.506,0,0,1-2354.853-270.613Zm-1.853.031a.478.478,0,0,1-.289-.583,5.384,5.384,0,0,1,4.081-3.836.431.431,0,0,1,.492.368.453.453,0,0,1-.347.522,4.465,4.465,0,0,0-3.416,3.222.43.43,0,0,1-.4.338.166.166,0,0,1-.116-.031Z" transform="translate(3379.461 446.007)" fill="#418fde"/>
  </g>
</svg>
