<svg xmlns="http://www.w3.org/2000/svg" width="9.894" height="13.155" viewBox="0 0 9.894 13.155">
  <g id="Group_34877" data-name="Group 34877" transform="translate(-4.818 -4.001)">
    <path id="Path_322" data-name="Path 322" d="M8.245,0h-6.6A1.654,1.654,0,0,0,0,1.649V9.07a1.654,1.654,0,0,0,1.649,1.649H2.02a5.483,5.483,0,0,1,.7-1.649H1.649V7.215L2.8,6.06,3.958,7.173,5.937,5.03l.7.618L7.173,3.01l-2.638.7.618.577L3.916,5.648,2.762,4.535,1.649,5.689V1.649h6.6V9.07H7.173a5.485,5.485,0,0,1,.7,1.649h.371A1.654,1.654,0,0,0,9.894,9.07V1.649A1.654,1.654,0,0,0,8.245,0Z" transform="translate(4.818 4.001)" fill="#418fde"/>
    <path id="Path_323" data-name="Path 323" d="M8.861,17.7C7.872,18.992,6.8,20.646,6.8,21.373a2.061,2.061,0,0,0,4.123,0C10.923,20.646,9.851,18.992,8.861,17.7Z" transform="translate(0.904 -6.278)" fill="#13294b"/>
  </g>
</svg>
