<svg xmlns="http://www.w3.org/2000/svg" width="12.896" height="12.896" viewBox="0 0 12.896 12.896">
  <g id="Group_35687" data-name="Group 35687" transform="translate(-3.85 -3.193)">
    <path id="Path_362" data-name="Path 362" d="M25.915,11.3l-4.554,4.554-1.733-1.693L18.5,15.29l2.861,2.861h0l5.722-5.722Z" transform="translate(-10.338 -6.777)" fill="#418fde"/>
    <path id="Path_363" data-name="Path 363" d="M16.16,16.43v.436H9.712V16.06h4.3l-1.2-1.209H9.712v-.806H12l-.729-.718.477-.491H9.712V12.03H12.56l.976-.964,1,.964h1.451l1.788-1.786V8H8.1V20.9h9.672v-6.07ZM9.712,10.015H16.16v.806H9.712Zm6.448,8.866H9.712v-.806H16.16Z" transform="translate(-4.25 -4.807)" fill="#13294b"/>
  </g>
</svg>
