<svg xmlns="http://www.w3.org/2000/svg" width="14.843" height="15.312" viewBox="0 0 14.843 15.312">
  <g id="Group_35685" data-name="Group 35685" transform="translate(-2.832 -8.643)">
    <path id="Path_217" data-name="Path 217" d="M18.3,17.4l1.559,3.368,3.542.543-2.551,2.575.614,3.716L18.3,25.869,15.137,27.6l.614-3.714L13.2,21.313l3.5-.545Z" transform="translate(-8.045 -3.647)" fill="#13294b"/>
    <path id="Path_218" data-name="Path 218" d="M-2342.789-268.835a.626.626,0,0,1-.595-.468,6.488,6.488,0,0,0-5.059-4.421.6.6,0,0,1-.415-.249.6.6,0,0,1-.1-.474.6.6,0,0,1,.249-.414.6.6,0,0,1,.474-.1,7.784,7.784,0,0,1,6.036,5.314.673.673,0,0,1-.425.808Zm-3.443-.34a3.963,3.963,0,0,0-2.338-1.87.62.62,0,0,1-.39-.311.621.621,0,0,1-.036-.5.62.62,0,0,1,.311-.389.622.622,0,0,1,.5-.036,5.282,5.282,0,0,1,3.1,2.466.633.633,0,0,1-.255.85.563.563,0,0,1-.34.128.664.664,0,0,1-.552-.34Zm-7.609.255a.633.633,0,0,1-.255-.85,5.015,5.015,0,0,1,3.1-2.466.674.674,0,0,1,.808.425.673.673,0,0,1-.425.808,4.092,4.092,0,0,0-2.338,1.87.744.744,0,0,1-.595.3.784.784,0,0,1-.3-.085Zm-2.72.043a.654.654,0,0,1-.425-.808,7.737,7.737,0,0,1,5.994-5.314.629.629,0,0,1,.722.51.629.629,0,0,1-.51.723,6.412,6.412,0,0,0-5.016,4.463.625.625,0,0,1-.595.468.255.255,0,0,1-.17-.042Z" transform="translate(2359.846 283.65)" fill="#418fde"/>
  </g>
</svg>
