<svg id="Group_88" data-name="Group 88" xmlns="http://www.w3.org/2000/svg" width="22.217" height="22.358" viewBox="0 0 22.217 22.358">
  <path id="Path_105985" data-name="Path 105985" d="M110.816,1.891A.969.969,0,0,1,110.944.1c.127-.052,1.691-.1,3.475-.1,3.027-.006,3.269.008,3.617.221a1.054,1.054,0,0,1,.44.492c.036.145.051,1.788.032,3.65-.034,3.324-.039,3.39-.292,3.643a1,1,0,0,1-1.361-.017c-.291-.274-.293-.286-.293-2.275a11.97,11.97,0,0,0-.094-2.059,40.069,40.069,0,0,0-2.983,2.839c-1.589,1.593-3.029,2.972-3.2,3.063-.437.232-.6.21-1.011-.134a.8.8,0,0,1-.356-.731c0-.41.151-.582,3.011-3.436,1.656-1.653,3.011-3.044,3.012-3.092a10.11,10.11,0,0,0-1.864-.087A6.059,6.059,0,0,1,110.816,1.891Z" transform="translate(-96.3)" fill="#333f48"/>
  <path id="Path_105986" data-name="Path 105986" d="M7.806,115.929a.983.983,0,0,1-.13,1.813c-.129.053-1.714.1-3.523.1-3.069.007-3.313-.008-3.666-.224a1.069,1.069,0,0,1-.446-.5c-.037-.147-.052-1.813-.033-3.7.034-3.371.039-3.437.3-3.694a1.011,1.011,0,0,1,1.379.017c.3.277.3.29.3,2.307a12.138,12.138,0,0,0,.1,2.087A40.622,40.622,0,0,0,5.1,111.261c1.611-1.616,3.071-3.014,3.245-3.106.443-.235.61-.213,1.024.136a.808.808,0,0,1,.361.742c0,.415-.153.59-3.052,3.484C5,114.192,3.627,115.6,3.626,115.651a10.246,10.246,0,0,0,1.889.088A6.14,6.14,0,0,1,7.806,115.929Z" transform="translate(0 -95.489)" fill="#333f48"/>
</svg>
