<svg xmlns="http://www.w3.org/2000/svg" width="27.301" height="21.899" viewBox="0 0 27.301 21.899">
  <path id="image_14_Traced_" data-name="image 14 (Traced)" d="M8.909.091A2.77,2.77,0,0,0,6.92,3.369,2.91,2.91,0,0,0,9.167,5.411l.535.08L10.27,6.7l.568,1.213-.615.587A6.642,6.642,0,0,0,8.334,11.6l-.1.343-1.536.027-1.536.027-.3-.5A2.363,2.363,0,0,0,2.7,10.35a2.4,2.4,0,0,0-1.829.684,2.706,2.706,0,0,0,0,3.985,2.442,2.442,0,0,0,1.768.688,2.426,2.426,0,0,0,2.172-1.1l.343-.533,1.559-.006,1.559-.006.07.439a7.029,7.029,0,0,0,1.388,2.625,5.918,5.918,0,0,0,4.522,2.01,5.923,5.923,0,0,0,4.241-1.6l.525-.491,1.422.829,1.422.829.081.651a2.687,2.687,0,1,0,4.646-1.988,2.811,2.811,0,0,0-3.145-.578l-.478.246-1.3-.758c-.713-.417-1.361-.817-1.44-.89-.115-.105-.107-.256.042-.756a7.958,7.958,0,0,0-.169-3.772c-.242-.615-.243-.633-.031-.8.119-.094.867-.649,1.662-1.233l1.446-1.061.371.194a3.29,3.29,0,0,0,2.148.017A2.781,2.781,0,0,0,27.3,5.5a2.665,2.665,0,1,0-5.331-.025l-.028.744L20.316,7.409c-1.137.834-1.67,1.16-1.772,1.087a8.105,8.105,0,0,0-2.386-1.328,7.342,7.342,0,0,0-3-.18l-.469.084-.582-1.222c-.575-1.208-.58-1.226-.379-1.515A2.868,2.868,0,0,0,11.9,1.5,2.538,2.538,0,0,0,10.2.13,1.976,1.976,0,0,0,8.909.091Zm7.243,9.215a4.369,4.369,0,0,1,1.96,1.979,3.013,3.013,0,0,1,.321,1.742,3.014,3.014,0,0,1-.323,1.744,4.637,4.637,0,0,1-2.023,2.023,3.2,3.2,0,0,1-1.717.3,3.269,3.269,0,0,1-1.8-.33,4.418,4.418,0,0,1-2.013-1.992,5.772,5.772,0,0,1-.008-3.464,4.34,4.34,0,0,1,1.615-1.789,3.443,3.443,0,0,1,2.391-.568A3.238,3.238,0,0,1,16.153,9.306Z" fill="#333f48" fill-rule="evenodd"/>
</svg>
