<svg xmlns="http://www.w3.org/2000/svg" width="29.973" height="30.182" viewBox="0 0 29.973 30.182">
  <path id="snooze" d="M10.812,4.153,8.894,1.86,2,7.63,3.933,9.923l6.879-5.77ZM31.973,7.645,25.079,1.86,23.146,4.153,30.04,9.938ZM16.987,5.067A13.488,13.488,0,1,0,30.474,18.555,13.489,13.489,0,0,0,16.987,5.067Zm0,23.978a10.49,10.49,0,1,1,10.491-10.49A10.483,10.483,0,0,1,16.987,29.045Zm-4.5-13.488h5.44l-5.44,6.294v2.7h8.992v-3h-5.44l5.44-6.294v-2.7H12.491Z" transform="translate(-2 -1.86)" fill="#418fde"/>
</svg>
