<svg xmlns="http://www.w3.org/2000/svg" version="1.0" width="22.000000pt" height="22.000000pt" viewBox="0 0 22.000000 22.000000" preserveAspectRatio="xMidYMid meet">
<metadata>
Created by potrace 1.16, written by Peter Selinger 2001-2019
</metadata>
<g transform="translate(0.000000,22.000000) scale(0.010377,-0.008594)" fill="#000000" stroke="none">
<path d="M47 2359 c-9 -6 -15 -14 -12 -18 2 -5 -4 -16 -15 -26 -15 -14 -20 -31 -20 -74 l0 -56 317 -317 318 -318 -101 0 c-87 0 -105 -3 -130 -21 l-29 -21 28 26 c15 14 24 26 19 26 -4 0 -21 -14 -38 -32 -16 -17 -23 -27 -15 -23 11 7 13 4 6 -11 -11 -24 -11 -84 0 -108 7 -15 5 -18 -6 -11 -8 4 -1 -6 15 -23 17 -18 34 -32 38 -32 5 0 -4 12 -19 26 l-28 26 29 -21 c27 -20 41 -21 283 -21 l255 0 34 34 34 34 0 255 c0 242 -1 256 -21 283 l-21 29 26 -28 c14 -15 26 -24 26 -19 0 4 -14 21 -32 38 -17 16 -27 23 -23 15 7 -11 4 -13 -11 -6 -24 11 -84 11 -108 0 -15 -7 -18 -5 -11 6 4 8 -6 1 -23 -15 -18 -17 -32 -34 -32 -38 0 -5 12 4 26 19 l26 28 -21 -29 c-18 -25 -21 -43 -21 -130 l0 -101 -314 314 c-173 173 -313 318 -310 322 14 24 -84 38 -119 18z"/>
<path d="M1433 1230 l-263 -5 -27 -28 -28 -27 -5 -268 -5 -267 29 -30 c16 -16 25 -24 21 -16 -7 11 -4 13 11 6 24 -11 84 -11 108 0 15 7 18 5 11 -6 -4 -8 6 -1 23 15 18 17 32 34 32 38 0 5 -12 -4 -26 -19 l-26 -28 21 29 c18 25 21 43 21 130 l0 101 314 -314 c173 -173 313 -318 310 -322 -7 -12 31 -29 66 -29 35 0 73 17 66 29 -3 5 3 16 14 26 15 14 20 31 20 74 l0 56 -317 317 -318 318 101 0 c87 0 105 3 130 21 l29 21 -28 -26 c-15 -14 -24 -26 -19 -26 4 0 21 14 38 32 16 17 23 27 15 23 -11 -7 -13 -4 -6 11 11 24 11 84 0 108 -7 15 -5 18 6 11 8 -4 1 6 -15 23 -17 18 -32 31 -35 30 -3 -1 -124 -5 -268 -8z"/>
</g>
</svg>