<svg xmlns="http://www.w3.org/2000/svg" width="50.768" height="35.022" viewBox="0 0 50.768 35.022">
  <path id="tramission_drive_line" d="M17.72,35.008A17.719,17.719,0,0,1,5.189,29.883a17.355,17.355,0,0,1,0-24.751,17.878,17.878,0,0,1,25.069,0A17.574,17.574,0,0,1,33.45,9.418,17.164,17.164,0,0,1,35.17,14.4H30.093a1.12,1.12,0,0,0-1.126,1.114v4.125c.155,0,.317-.016.47-.019a11.608,11.608,0,0,1-.47,1.764V19.643a8.387,8.387,0,0,0-7.708,6.784l-.466,2.447a11.843,11.843,0,0,0,8.184-7.5v3.053A1.12,1.12,0,0,0,30.1,25.545h3.376A17.77,17.77,0,0,1,17.72,35.024ZM6,19.611a11.862,11.862,0,0,0,8.653,9.263l-.457-2.45A8.419,8.419,0,0,0,6,19.611ZM17.72,13.959a3.557,3.557,0,1,0,3.6,3.545A3.557,3.557,0,0,0,17.72,13.959Zm0-3c1.723,0,3.468.06,5.188.184s3.462.317,5.172.549a11.995,11.995,0,0,0-20.715,0c1.71-.241,3.449-.428,5.172-.549s3.459-.2,5.182-.2Zm31.923,14.6H33.479c.127-.244.251-.492.365-.743H29.718V15.14h4.519v.743H30.48v.743h2.253v.743H30.48v.743h3.757v.743H30.48V19.6h2.253v.743H30.48v.743h3.757v.743H30.48v.743h2.253v.743H30.48v.743h3.687c-.1.251-.209.5-.317.743h.768v-.746h-.444a17.218,17.218,0,0,0,.981-3.335,1.882,1.882,0,0,0,1.72,1.107h6.013a1.856,1.856,0,0,0,0-3.713h-1.51V15.14h1.5V14.4h6.762a1.12,1.12,0,0,1,1.127,1.114v8.92a1.12,1.12,0,0,1-1.126,1.1Zm-3-10.418a1.12,1.12,0,0,0-1.126,1.114v7.422a1.12,1.12,0,0,0,1.126,1.114H48.9a1.12,1.12,0,0,0,1.126-1.114V16.254A1.12,1.12,0,0,0,48.9,15.14Zm-3.767,7.422A1.114,1.114,0,1,0,44,23.676a1.114,1.114,0,0,0-1.126-1.114Zm-3.005,0A1.114,1.114,0,1,0,41,23.676,1.114,1.114,0,0,0,39.873,22.562Zm-3.005,0a1.114,1.114,0,1,0,1.126,1.114,1.114,1.114,0,0,0-1.126-1.114ZM42.9,24.069a.413.413,0,1,1,.381-.409.4.4,0,0,1-.393.406Zm-3.011,0a.272.272,0,1,0-.013,0Zm-3.011,0a.413.413,0,1,1,.381-.409.4.4,0,0,1-.393.406Zm12.03-.022H46.644a.374.374,0,0,1-.374-.371V23.3h3.005v.371a.374.374,0,0,1-.384.371Zm.374-1.485H46.273V21.82h3.005Zm0-1.485H46.273v-.743h3.005Zm-6.388,0H41.377V18.856h1.5a1.114,1.114,0,1,1,0,2.221Zm-2.253,0h-1.5V15.14h1.482Zm-2.253,0h-1.5a1.114,1.114,0,1,1,0-2.221h1.5Zm-3.224-.365h0a1.831,1.831,0,0,1,.248-1.9,17.452,17.452,0,0,1-.248,1.9ZM49.278,19.6H46.273v-.746h3.005v.743ZM17.72,19.008a1.523,1.523,0,0,1-1.076-.441,1.491,1.491,0,0,1,0-2.126,1.536,1.536,0,0,1,2.155,0,1.491,1.491,0,0,1,0,2.126,1.523,1.523,0,0,1-1.079.441ZM35.4,18.814h0c.032-.432.048-.873.048-1.311a17.555,17.555,0,0,0-.276-3.107h1.7v.743h1.5v2.97h-1.5a1.879,1.879,0,0,0-1.472.7Zm13.873-.7H46.264v-.746h3.005v.743Zm0-1.485H46.264v-.371a.374.374,0,0,1,.374-.371h2.253a.374.374,0,0,1,.374.371v.371ZM42.129,14.4H37.62v-.762h4.509V14.4Zm.162-1.485H37.442l-1.476-2.428a4.239,4.239,0,0,1-.619-2.2,4.182,4.182,0,0,1,.282-1.517A4.277,4.277,0,0,1,36.407,5.5h.083a1.238,1.238,0,0,1,1.234,1.136l.162,2.221a1.993,1.993,0,0,0,3.97,0l.162-2.221A1.238,1.238,0,0,1,43.252,5.5h.07A4.277,4.277,0,0,1,44.1,6.772a4.182,4.182,0,0,1,.282,1.517,4.24,4.24,0,0,1-.619,2.2l-1.476,2.428Zm-2.418-2.97a1.238,1.238,0,0,1-1.234-1.136l-.162-2.221a1.964,1.964,0,0,0-1.361-1.717,4.373,4.373,0,0,1,1.2-.635A4.322,4.322,0,0,1,39.7,4.014h.352a4.325,4.325,0,0,1,1.384.225,4.379,4.379,0,0,1,1.2.635,1.964,1.964,0,0,0-1.361,1.717L41.11,8.812a1.238,1.238,0,0,1-1.238,1.13Z" transform="translate(-0.001 -0.001)" fill="#00225a"/>
</svg>
