<svg xmlns="http://www.w3.org/2000/svg" width="35.278" height="18.67" viewBox="0 0 35.278 18.67">
  <g id="noun-mining-truck-3661281" transform="translate(-91.171 -143.626)">
    <path id="Path_105987" data-name="Path 105987" d="M163.687,150.633l-1.725-4.6a.456.456,0,0,0-.427-.3H144.6l-3.054-1.937a.456.456,0,0,0-.244-.071h-9.482a.456.456,0,0,0-.456.46l.011,1.263a.456.456,0,0,0,.456.452h6.813l3.75,8.589a.456.456,0,0,0,.418.273h5.135a.456.456,0,1,0,0-.912h-4.836l-3.75-8.589a.455.455,0,0,0-.418-.273h-6.66l0-.351h8.889l3.054,1.937a.456.456,0,0,0,.244.071h16.751l1.432,3.82-7.638,1.775a.456.456,0,1,0,.206.888l8.144-1.892a.457.457,0,0,0,.324-.6Z" transform="translate(-37.377)" fill="#a2aaa4" stroke="#a2aaa4" stroke-width="0.2"/>
    <path id="Path_105988" data-name="Path 105988" d="M142.269,278.51a4.668,4.668,0,1,0,4.668,4.668A4.673,4.673,0,0,0,142.269,278.51Zm0,8.424a3.756,3.756,0,1,1,3.756-3.756A3.761,3.761,0,0,1,142.269,286.934Z" transform="translate(-43.191 -125.65)" fill="#a2aaa4" stroke="#a2aaa4" stroke-width="0.2"/>
    <path id="Path_105989" data-name="Path 105989" d="M378.2,278.51a4.668,4.668,0,1,0,4.668,4.668A4.673,4.673,0,0,0,378.2,278.51Zm0,8.424a3.756,3.756,0,1,1,3.756-3.756A3.761,3.761,0,0,1,378.2,286.934Z" transform="translate(-263.132 -125.65)" fill="#a2aaa4" stroke="#a2aaa4" stroke-width="0.2"/>
    <path id="Path_105990" data-name="Path 105990" d="M284.312,357.78h-5.323a.456.456,0,1,0,0,.912h5.323a.456.456,0,1,0,0-.912Z" transform="translate(-174.571 -199.548)" fill="#a2aaa4" stroke="#a2aaa4" stroke-width="0.2"/>
    <path id="Path_105991" data-name="Path 105991" d="M109.961,190.125h-5.089l-3.792-8.687a.48.48,0,0,0-.422-.273l-3.9.038a2.53,2.53,0,0,0-2.376,1.741l-.878,2.673h-.767a1.472,1.472,0,0,0-1.47,1.47v4.734a2.037,2.037,0,0,0,1.6,2l.735.164a.456.456,0,0,0,.2-.89l-.734-.163a1.13,1.13,0,0,1-.889-1.109v-.727H93.3a.273.273,0,1,0,0-.547H92.182v-.415H93.3a.273.273,0,1,0,0-.547H92.182v-.415h1.483a.273.273,0,0,0,0-.547H92.182v-.415H94.03a.273.273,0,0,0,0-.547H92.182v-.573a.559.559,0,0,1,.558-.558h1.1l.044,0,5.739-.56a.454.454,0,0,0,.241-.1l1.6-1.282,2.7,6.175a.456.456,0,0,0,.418.273h5.387a.456.456,0,0,0,0-.912Zm-14.709-6.9a1.617,1.617,0,0,1,1.059-1.039v3.163c0,.008,0,.014,0,.021l-1.826.178Zm4.146,1.845-2.175.212V182.11l3.143-.031.717,1.643Z" transform="translate(0 -34.902)" fill="#a2aaa4" stroke="#a2aaa4" stroke-width="0.2"/>
    <path id="Path_105992" data-name="Path 105992" d="M178.728,317.62a2.018,2.018,0,1,0,2.018,2.018A2.02,2.02,0,0,0,178.728,317.62Zm0,3.124a1.106,1.106,0,1,1,1.106-1.106A1.107,1.107,0,0,1,178.728,320.744Z" transform="translate(-79.649 -162.109)" fill="#a2aaa4" stroke="#a2aaa4" stroke-width="0.2"/>
    <path id="Path_105993" data-name="Path 105993" d="M414.655,317.62a2.018,2.018,0,1,0,2.018,2.018A2.02,2.02,0,0,0,414.655,317.62Zm0,3.124a1.106,1.106,0,1,1,1.106-1.106A1.108,1.108,0,0,1,414.655,320.744Z" transform="translate(-299.588 -162.109)" fill="#a2aaa4" stroke="#a2aaa4" stroke-width="0.2"/>
    <path id="Path_105994" data-name="Path 105994" d="M303.189,206.041l-.38-.759a.273.273,0,0,0-.245-.151H284.727a.273.273,0,1,0,0,.547h.552l.9,2.293a.273.273,0,0,0,.255.173.277.277,0,0,0,.1-.019.274.274,0,0,0,.155-.355l-.823-2.093h2.448l.9,2.293a.274.274,0,0,0,.255.173.278.278,0,0,0,.1-.019.274.274,0,0,0,.155-.355l-.823-2.093h2.448l.9,2.293a.274.274,0,0,0,.255.173.278.278,0,0,0,.1-.019.274.274,0,0,0,.155-.355l-.823-2.093h2.448l.9,2.293a.274.274,0,0,0,.255.173.278.278,0,0,0,.1-.019.274.274,0,0,0,.155-.355l-.823-2.093h2.448l.862,2.193a.274.274,0,0,0,.255.173.277.277,0,0,0,.1-.019.274.274,0,0,0,.155-.355l-.783-1.993h2.448l.613,1.56a.274.274,0,0,0,.255.173.279.279,0,0,0,.1-.019.274.274,0,0,0,.155-.355l-.535-1.36H302.4l.3.608a.273.273,0,1,0,.489-.245Z" transform="translate(-180.091 -57.243)" fill="#a2aaa4" stroke="#a2aaa4" stroke-width="0.2"/>
  </g>
</svg>
