<svg xmlns="http://www.w3.org/2000/svg" width="33" height="24" viewBox="0 0 33 24">
  <path id="Union_24" data-name="Union 24" d="M22755.023-6094.5a4.409,4.409,0,0,1-2.406-2.732h-6.832a4.461,4.461,0,0,1-2.418,2.729,4.421,4.421,0,0,1-3.633,0,4.419,4.419,0,0,1-2.4-2.729h-2.426a1.373,1.373,0,0,1-.973-.405,1.389,1.389,0,0,1-.4-.979l.168-14.644a1.406,1.406,0,0,1,.41-.981,1.382,1.382,0,0,1,.977-.4h14.25l.453-2.352a1.4,1.4,0,0,1,.48-.8,1.371,1.371,0,0,1,.879-.315h2.594a1.394,1.394,0,0,1,.828.275,1.408,1.408,0,0,1,.5.718h0l.738,2.47h2.012a1.382,1.382,0,0,1,1.121.564l4.332,6,2.809,2.527a1.408,1.408,0,0,1,.453,1.039v5.9a1.4,1.4,0,0,1-.406.979,1.386,1.386,0,0,1-.973.405h-4.094a4.42,4.42,0,0,1-2.406,2.732,4.385,4.385,0,0,1-1.82.391A4.38,4.38,0,0,1,22755.023-6094.5Zm.641-5.217a1.68,1.68,0,0,0-.484,1.18,1.689,1.689,0,0,0,.484,1.181,1.681,1.681,0,0,0,1.18.487,1.637,1.637,0,0,0,1.172-.489,1.672,1.672,0,0,0,.492-1.179,1.639,1.639,0,0,0-.492-1.18,1.629,1.629,0,0,0-1.172-.489A1.674,1.674,0,0,0,22755.664-6099.715Zm-15.285,0a1.684,1.684,0,0,0-.488,1.18,1.693,1.693,0,0,0,.488,1.181,1.688,1.688,0,0,0,1.18.487,1.674,1.674,0,0,0,1.176-.489,1.7,1.7,0,0,0,.488-1.179,1.667,1.667,0,0,0-.488-1.18,1.665,1.665,0,0,0-1.176-.489A1.681,1.681,0,0,0,22740.379-6099.715Zm18.23-2.885a4.461,4.461,0,0,1,2.41,2.615v0h2.754l.012-3.917-2.074-1.866h-9.191a1.381,1.381,0,0,1-.98-.406,1.389,1.389,0,0,1-.4-.979v-4.722h-14.68l-.145,11.889h1.066a4.408,4.408,0,0,1,2.406-2.62,4.4,4.4,0,0,1,3.551,0,4.425,4.425,0,0,1,2.4,2.62h6.914a4.466,4.466,0,0,1,2.406-2.615,4.417,4.417,0,0,1,1.777-.373A4.426,4.426,0,0,1,22758.609-6102.6Zm-4.719-5.936h5.645l-2.414-3.338h-3.23Zm-1.746-6.108h.785l-.207-.692h-.441Zm-9.016,11.136v-2.138H22741v-2.769h2.133v-2.137h2.762v2.137h2.133v2.769h-2.133v2.138Z" transform="translate(-22733.539 6118.108)" fill="#d9534f"/>
</svg>
