<svg xmlns="http://www.w3.org/2000/svg" width="10.145" height="13.057" viewBox="0 0 10.145 13.057">
  <g id="Group_34879" data-name="Group 34879" transform="translate(0 0)">
    <g id="noun-warranty-199475">
      <path id="Path_106081" data-name="Path 106081" d="M363.225,312.386,361.5,308.56l-.1.072-.087.087-.435.681a.764.764,0,0,1-.623.362l-.811.029a.272.272,0,0,0-.116.029l-.116.058-.811,1.782,1.116,2.464a.355.355,0,0,0,.609.058l.841-1.217c.1-.13.217-.2.3-.145l1.609.058a.354.354,0,0,0,.348-.493Z" transform="translate(-353.11 -301.285)" fill="#13294b"/>
      <path id="Path_106082" data-name="Path 106082" d="M159.49,308.012a.772.772,0,0,1-.348.087.786.786,0,0,1-.362-.087l-.2-.1-.522-.261a.342.342,0,0,0-.116-.029l-.812-.029a.807.807,0,0,1-.623-.362l-.435-.681-.087-.087-.217-.145-1.754,3.9a.353.353,0,0,0,.319.493h.014l1.609-.058h.014a.378.378,0,0,1,.29.145l.841,1.217a.338.338,0,0,0,.29.145.348.348,0,0,0,.319-.2l1.348-2.971Z" transform="translate(-153.982 -299.1)" fill="#13294b"/>
      <path id="Path_106083" data-name="Path 106083" d="M187.463,32.619a.66.66,0,0,1,.072.29l.029.812a.343.343,0,0,0,.159.275l.043.029.362.232.275.174a.775.775,0,0,1,.217.217l.435.681a.311.311,0,0,0,.275.159l.811.029a.659.659,0,0,1,.29.072l.043.029.681.348a.314.314,0,0,0,.319,0l.478-.246.246-.13c.014-.014.043-.014.058-.029a1.352,1.352,0,0,1,.232-.058h.014l.8-.029a.343.343,0,0,0,.275-.159l.435-.681a.775.775,0,0,1,.217-.217l.159-.1.522-.333a.311.311,0,0,0,.159-.275l.029-.812a.659.659,0,0,1,.072-.29l.377-.725a.314.314,0,0,0,0-.319l-.377-.725a.66.66,0,0,1-.072-.29l-.029-.812a.343.343,0,0,0-.159-.275l-.681-.435a.775.775,0,0,1-.217-.217l-.435-.681a.311.311,0,0,0-.275-.159l-.812-.029a.659.659,0,0,1-.29-.072l-.725-.377a.314.314,0,0,0-.319,0l-.725.377a.66.66,0,0,1-.29.072l-.811.029a.343.343,0,0,0-.275.159l-.435.681a.775.775,0,0,1-.217.217l-.681.435a.311.311,0,0,0-.159.275l-.029.812a.659.659,0,0,1-.072.29l-.377.725a.314.314,0,0,0,0,.319Zm3.869-3.942a3.058,3.058,0,1,1-3.058,3.058,3.058,3.058,0,0,1,3.058-3.058Z" transform="translate(-186.188 -27.446)" fill="#13294b"/>
      <path id="Path_106084" data-name="Path 106084" d="M250.244,93.369a2.724,2.724,0,1,0-2.724-2.724A2.721,2.721,0,0,0,250.244,93.369Zm0-5.26a2.536,2.536,0,1,1-2.536,2.536A2.53,2.53,0,0,1,250.244,88.108Z" transform="translate(-245.099 -86.355)" fill="#13294b"/>
    </g>
    <path id="Path_106085" data-name="Path 106085" d="M285.133,127.552l1.058-.754,1.043.754-.406-1.232,1.058-.768h-1.3l-.391-1.232-.406,1.232h-1.3l1.058.768Z" transform="translate(-281.104 -121.813)" fill="#418fde"/>
  </g>
</svg>
